%TF.GenerationSoftware,KiCad,Pcbnew,(7.0.0-0)*%
%TF.CreationDate,2023-04-18T10:09:11-04:00*%
%TF.ProjectId,plate,706c6174-652e-46b6-9963-61645f706362,rev?*%
%TF.SameCoordinates,Original*%
%TF.FileFunction,Profile,NP*%
%FSLAX46Y46*%
G04 Gerber Fmt 4.6, Leading zero omitted, Abs format (unit mm)*
G04 Created by KiCad (PCBNEW (7.0.0-0)) date 2023-04-18 10:09:11*
%MOMM*%
%LPD*%
G01*
G04 APERTURE LIST*
%ADD10C,0.150000*%
%TA.AperFunction,Profile*%
%ADD11C,0.010000*%
%TD*%
%TA.AperFunction,Profile*%
%ADD12C,0.100000*%
%TD*%
G04 APERTURE END LIST*
D10*
%TO.C,REF\u002A\u002A*%
X35795387Y-60379880D02*
X35795387Y-59713214D01*
X35795387Y-59808452D02*
X35843006Y-59760833D01*
X35843006Y-59760833D02*
X35938244Y-59713214D01*
X35938244Y-59713214D02*
X36081101Y-59713214D01*
X36081101Y-59713214D02*
X36176339Y-59760833D01*
X36176339Y-59760833D02*
X36223958Y-59856071D01*
X36223958Y-59856071D02*
X36223958Y-60379880D01*
X36223958Y-59856071D02*
X36271577Y-59760833D01*
X36271577Y-59760833D02*
X36366815Y-59713214D01*
X36366815Y-59713214D02*
X36509672Y-59713214D01*
X36509672Y-59713214D02*
X36604911Y-59760833D01*
X36604911Y-59760833D02*
X36652530Y-59856071D01*
X36652530Y-59856071D02*
X36652530Y-60379880D01*
X37319196Y-59379880D02*
X37414434Y-59379880D01*
X37414434Y-59379880D02*
X37509672Y-59427500D01*
X37509672Y-59427500D02*
X37557291Y-59475119D01*
X37557291Y-59475119D02*
X37604910Y-59570357D01*
X37604910Y-59570357D02*
X37652529Y-59760833D01*
X37652529Y-59760833D02*
X37652529Y-59998928D01*
X37652529Y-59998928D02*
X37604910Y-60189404D01*
X37604910Y-60189404D02*
X37557291Y-60284642D01*
X37557291Y-60284642D02*
X37509672Y-60332261D01*
X37509672Y-60332261D02*
X37414434Y-60379880D01*
X37414434Y-60379880D02*
X37319196Y-60379880D01*
X37319196Y-60379880D02*
X37223958Y-60332261D01*
X37223958Y-60332261D02*
X37176339Y-60284642D01*
X37176339Y-60284642D02*
X37128720Y-60189404D01*
X37128720Y-60189404D02*
X37081101Y-59998928D01*
X37081101Y-59998928D02*
X37081101Y-59760833D01*
X37081101Y-59760833D02*
X37128720Y-59570357D01*
X37128720Y-59570357D02*
X37176339Y-59475119D01*
X37176339Y-59475119D02*
X37223958Y-59427500D01*
X37223958Y-59427500D02*
X37319196Y-59379880D01*
X38081101Y-60379880D02*
X38081101Y-59713214D01*
X38081101Y-59379880D02*
X38033482Y-59427500D01*
X38033482Y-59427500D02*
X38081101Y-59475119D01*
X38081101Y-59475119D02*
X38128720Y-59427500D01*
X38128720Y-59427500D02*
X38081101Y-59379880D01*
X38081101Y-59379880D02*
X38081101Y-59475119D01*
X38557291Y-60379880D02*
X38557291Y-59713214D01*
X38557291Y-59379880D02*
X38509672Y-59427500D01*
X38509672Y-59427500D02*
X38557291Y-59475119D01*
X38557291Y-59475119D02*
X38604910Y-59427500D01*
X38604910Y-59427500D02*
X38557291Y-59379880D01*
X38557291Y-59379880D02*
X38557291Y-59475119D01*
X39223957Y-59379880D02*
X39319195Y-59379880D01*
X39319195Y-59379880D02*
X39414433Y-59427500D01*
X39414433Y-59427500D02*
X39462052Y-59475119D01*
X39462052Y-59475119D02*
X39509671Y-59570357D01*
X39509671Y-59570357D02*
X39557290Y-59760833D01*
X39557290Y-59760833D02*
X39557290Y-59998928D01*
X39557290Y-59998928D02*
X39509671Y-60189404D01*
X39509671Y-60189404D02*
X39462052Y-60284642D01*
X39462052Y-60284642D02*
X39414433Y-60332261D01*
X39414433Y-60332261D02*
X39319195Y-60379880D01*
X39319195Y-60379880D02*
X39223957Y-60379880D01*
X39223957Y-60379880D02*
X39128719Y-60332261D01*
X39128719Y-60332261D02*
X39081100Y-60284642D01*
X39081100Y-60284642D02*
X39033481Y-60189404D01*
X39033481Y-60189404D02*
X38985862Y-59998928D01*
X38985862Y-59998928D02*
X38985862Y-59760833D01*
X38985862Y-59760833D02*
X39033481Y-59570357D01*
X39033481Y-59570357D02*
X39081100Y-59475119D01*
X39081100Y-59475119D02*
X39128719Y-59427500D01*
X39128719Y-59427500D02*
X39223957Y-59379880D01*
X40414433Y-59713214D02*
X40414433Y-60379880D01*
X40176338Y-59332261D02*
X39938243Y-60046547D01*
X39938243Y-60046547D02*
X40557290Y-60046547D01*
X41128719Y-59379880D02*
X41223957Y-59379880D01*
X41223957Y-59379880D02*
X41319195Y-59427500D01*
X41319195Y-59427500D02*
X41366814Y-59475119D01*
X41366814Y-59475119D02*
X41414433Y-59570357D01*
X41414433Y-59570357D02*
X41462052Y-59760833D01*
X41462052Y-59760833D02*
X41462052Y-59998928D01*
X41462052Y-59998928D02*
X41414433Y-60189404D01*
X41414433Y-60189404D02*
X41366814Y-60284642D01*
X41366814Y-60284642D02*
X41319195Y-60332261D01*
X41319195Y-60332261D02*
X41223957Y-60379880D01*
X41223957Y-60379880D02*
X41128719Y-60379880D01*
X41128719Y-60379880D02*
X41033481Y-60332261D01*
X41033481Y-60332261D02*
X40985862Y-60284642D01*
X40985862Y-60284642D02*
X40938243Y-60189404D01*
X40938243Y-60189404D02*
X40890624Y-59998928D01*
X40890624Y-59998928D02*
X40890624Y-59760833D01*
X40890624Y-59760833D02*
X40938243Y-59570357D01*
X40938243Y-59570357D02*
X40985862Y-59475119D01*
X40985862Y-59475119D02*
X41033481Y-59427500D01*
X41033481Y-59427500D02*
X41128719Y-59379880D01*
X41652529Y-60475119D02*
X42414433Y-60475119D01*
X42652529Y-60379880D02*
X42652529Y-59379880D01*
X42652529Y-59379880D02*
X43033481Y-59379880D01*
X43033481Y-59379880D02*
X43128719Y-59427500D01*
X43128719Y-59427500D02*
X43176338Y-59475119D01*
X43176338Y-59475119D02*
X43223957Y-59570357D01*
X43223957Y-59570357D02*
X43223957Y-59713214D01*
X43223957Y-59713214D02*
X43176338Y-59808452D01*
X43176338Y-59808452D02*
X43128719Y-59856071D01*
X43128719Y-59856071D02*
X43033481Y-59903690D01*
X43033481Y-59903690D02*
X42652529Y-59903690D01*
X44223957Y-60284642D02*
X44176338Y-60332261D01*
X44176338Y-60332261D02*
X44033481Y-60379880D01*
X44033481Y-60379880D02*
X43938243Y-60379880D01*
X43938243Y-60379880D02*
X43795386Y-60332261D01*
X43795386Y-60332261D02*
X43700148Y-60237023D01*
X43700148Y-60237023D02*
X43652529Y-60141785D01*
X43652529Y-60141785D02*
X43604910Y-59951309D01*
X43604910Y-59951309D02*
X43604910Y-59808452D01*
X43604910Y-59808452D02*
X43652529Y-59617976D01*
X43652529Y-59617976D02*
X43700148Y-59522738D01*
X43700148Y-59522738D02*
X43795386Y-59427500D01*
X43795386Y-59427500D02*
X43938243Y-59379880D01*
X43938243Y-59379880D02*
X44033481Y-59379880D01*
X44033481Y-59379880D02*
X44176338Y-59427500D01*
X44176338Y-59427500D02*
X44223957Y-59475119D01*
X44985862Y-59856071D02*
X45128719Y-59903690D01*
X45128719Y-59903690D02*
X45176338Y-59951309D01*
X45176338Y-59951309D02*
X45223957Y-60046547D01*
X45223957Y-60046547D02*
X45223957Y-60189404D01*
X45223957Y-60189404D02*
X45176338Y-60284642D01*
X45176338Y-60284642D02*
X45128719Y-60332261D01*
X45128719Y-60332261D02*
X45033481Y-60379880D01*
X45033481Y-60379880D02*
X44652529Y-60379880D01*
X44652529Y-60379880D02*
X44652529Y-59379880D01*
X44652529Y-59379880D02*
X44985862Y-59379880D01*
X44985862Y-59379880D02*
X45081100Y-59427500D01*
X45081100Y-59427500D02*
X45128719Y-59475119D01*
X45128719Y-59475119D02*
X45176338Y-59570357D01*
X45176338Y-59570357D02*
X45176338Y-59665595D01*
X45176338Y-59665595D02*
X45128719Y-59760833D01*
X45128719Y-59760833D02*
X45081100Y-59808452D01*
X45081100Y-59808452D02*
X44985862Y-59856071D01*
X44985862Y-59856071D02*
X44652529Y-59856071D01*
X45414434Y-60475119D02*
X46176338Y-60475119D01*
X46271577Y-59379880D02*
X46843005Y-59379880D01*
X46557291Y-60379880D02*
X46557291Y-59379880D01*
X47557291Y-60332261D02*
X47462053Y-60379880D01*
X47462053Y-60379880D02*
X47271577Y-60379880D01*
X47271577Y-60379880D02*
X47176339Y-60332261D01*
X47176339Y-60332261D02*
X47128720Y-60237023D01*
X47128720Y-60237023D02*
X47128720Y-59856071D01*
X47128720Y-59856071D02*
X47176339Y-59760833D01*
X47176339Y-59760833D02*
X47271577Y-59713214D01*
X47271577Y-59713214D02*
X47462053Y-59713214D01*
X47462053Y-59713214D02*
X47557291Y-59760833D01*
X47557291Y-59760833D02*
X47604910Y-59856071D01*
X47604910Y-59856071D02*
X47604910Y-59951309D01*
X47604910Y-59951309D02*
X47128720Y-60046547D01*
X48033482Y-60379880D02*
X48033482Y-59713214D01*
X48033482Y-59808452D02*
X48081101Y-59760833D01*
X48081101Y-59760833D02*
X48176339Y-59713214D01*
X48176339Y-59713214D02*
X48319196Y-59713214D01*
X48319196Y-59713214D02*
X48414434Y-59760833D01*
X48414434Y-59760833D02*
X48462053Y-59856071D01*
X48462053Y-59856071D02*
X48462053Y-60379880D01*
X48462053Y-59856071D02*
X48509672Y-59760833D01*
X48509672Y-59760833D02*
X48604910Y-59713214D01*
X48604910Y-59713214D02*
X48747767Y-59713214D01*
X48747767Y-59713214D02*
X48843006Y-59760833D01*
X48843006Y-59760833D02*
X48890625Y-59856071D01*
X48890625Y-59856071D02*
X48890625Y-60379880D01*
X49366815Y-59713214D02*
X49366815Y-60713214D01*
X49366815Y-59760833D02*
X49462053Y-59713214D01*
X49462053Y-59713214D02*
X49652529Y-59713214D01*
X49652529Y-59713214D02*
X49747767Y-59760833D01*
X49747767Y-59760833D02*
X49795386Y-59808452D01*
X49795386Y-59808452D02*
X49843005Y-59903690D01*
X49843005Y-59903690D02*
X49843005Y-60189404D01*
X49843005Y-60189404D02*
X49795386Y-60284642D01*
X49795386Y-60284642D02*
X49747767Y-60332261D01*
X49747767Y-60332261D02*
X49652529Y-60379880D01*
X49652529Y-60379880D02*
X49462053Y-60379880D01*
X49462053Y-60379880D02*
X49366815Y-60332261D01*
X50414434Y-60379880D02*
X50319196Y-60332261D01*
X50319196Y-60332261D02*
X50271577Y-60237023D01*
X50271577Y-60237023D02*
X50271577Y-59379880D01*
X51223958Y-60379880D02*
X51223958Y-59856071D01*
X51223958Y-59856071D02*
X51176339Y-59760833D01*
X51176339Y-59760833D02*
X51081101Y-59713214D01*
X51081101Y-59713214D02*
X50890625Y-59713214D01*
X50890625Y-59713214D02*
X50795387Y-59760833D01*
X51223958Y-60332261D02*
X51128720Y-60379880D01*
X51128720Y-60379880D02*
X50890625Y-60379880D01*
X50890625Y-60379880D02*
X50795387Y-60332261D01*
X50795387Y-60332261D02*
X50747768Y-60237023D01*
X50747768Y-60237023D02*
X50747768Y-60141785D01*
X50747768Y-60141785D02*
X50795387Y-60046547D01*
X50795387Y-60046547D02*
X50890625Y-59998928D01*
X50890625Y-59998928D02*
X51128720Y-59998928D01*
X51128720Y-59998928D02*
X51223958Y-59951309D01*
X51557292Y-59713214D02*
X51938244Y-59713214D01*
X51700149Y-59379880D02*
X51700149Y-60237023D01*
X51700149Y-60237023D02*
X51747768Y-60332261D01*
X51747768Y-60332261D02*
X51843006Y-60379880D01*
X51843006Y-60379880D02*
X51938244Y-60379880D01*
X52652530Y-60332261D02*
X52557292Y-60379880D01*
X52557292Y-60379880D02*
X52366816Y-60379880D01*
X52366816Y-60379880D02*
X52271578Y-60332261D01*
X52271578Y-60332261D02*
X52223959Y-60237023D01*
X52223959Y-60237023D02*
X52223959Y-59856071D01*
X52223959Y-59856071D02*
X52271578Y-59760833D01*
X52271578Y-59760833D02*
X52366816Y-59713214D01*
X52366816Y-59713214D02*
X52557292Y-59713214D01*
X52557292Y-59713214D02*
X52652530Y-59760833D01*
X52652530Y-59760833D02*
X52700149Y-59856071D01*
X52700149Y-59856071D02*
X52700149Y-59951309D01*
X52700149Y-59951309D02*
X52223959Y-60046547D01*
X52890626Y-60475119D02*
X53652530Y-60475119D01*
X53795388Y-59713214D02*
X54033483Y-60379880D01*
X54033483Y-60379880D02*
X54271578Y-59713214D01*
X55176340Y-60379880D02*
X54604912Y-60379880D01*
X54890626Y-60379880D02*
X54890626Y-59379880D01*
X54890626Y-59379880D02*
X54795388Y-59522738D01*
X54795388Y-59522738D02*
X54700150Y-59617976D01*
X54700150Y-59617976D02*
X54604912Y-59665595D01*
X55604912Y-60284642D02*
X55652531Y-60332261D01*
X55652531Y-60332261D02*
X55604912Y-60379880D01*
X55604912Y-60379880D02*
X55557293Y-60332261D01*
X55557293Y-60332261D02*
X55604912Y-60284642D01*
X55604912Y-60284642D02*
X55604912Y-60379880D01*
X56271578Y-59379880D02*
X56366816Y-59379880D01*
X56366816Y-59379880D02*
X56462054Y-59427500D01*
X56462054Y-59427500D02*
X56509673Y-59475119D01*
X56509673Y-59475119D02*
X56557292Y-59570357D01*
X56557292Y-59570357D02*
X56604911Y-59760833D01*
X56604911Y-59760833D02*
X56604911Y-59998928D01*
X56604911Y-59998928D02*
X56557292Y-60189404D01*
X56557292Y-60189404D02*
X56509673Y-60284642D01*
X56509673Y-60284642D02*
X56462054Y-60332261D01*
X56462054Y-60332261D02*
X56366816Y-60379880D01*
X56366816Y-60379880D02*
X56271578Y-60379880D01*
X56271578Y-60379880D02*
X56176340Y-60332261D01*
X56176340Y-60332261D02*
X56128721Y-60284642D01*
X56128721Y-60284642D02*
X56081102Y-60189404D01*
X56081102Y-60189404D02*
X56033483Y-59998928D01*
X56033483Y-59998928D02*
X56033483Y-59760833D01*
X56033483Y-59760833D02*
X56081102Y-59570357D01*
X56081102Y-59570357D02*
X56128721Y-59475119D01*
X56128721Y-59475119D02*
X56176340Y-59427500D01*
X56176340Y-59427500D02*
X56271578Y-59379880D01*
X57033483Y-60284642D02*
X57081102Y-60332261D01*
X57081102Y-60332261D02*
X57033483Y-60379880D01*
X57033483Y-60379880D02*
X56985864Y-60332261D01*
X56985864Y-60332261D02*
X57033483Y-60284642D01*
X57033483Y-60284642D02*
X57033483Y-60379880D01*
X58033482Y-60379880D02*
X57462054Y-60379880D01*
X57747768Y-60379880D02*
X57747768Y-59379880D01*
X57747768Y-59379880D02*
X57652530Y-59522738D01*
X57652530Y-59522738D02*
X57557292Y-59617976D01*
X57557292Y-59617976D02*
X57462054Y-59665595D01*
D11*
X62512500Y-86850000D02*
X62512500Y-99850000D01*
X63012500Y-100350000D02*
X76012500Y-100350000D01*
X76012500Y-86350000D02*
X63012500Y-86350000D01*
X76512500Y-99850000D02*
X76512500Y-86850000D01*
X63012500Y-86350000D02*
G75*
G03*
X62512500Y-86850000I1J-500001D01*
G01*
X62512500Y-99850000D02*
G75*
G03*
X63012500Y-100350000I500001J1D01*
G01*
X76512500Y-86850000D02*
G75*
G03*
X76012500Y-86350000I-500000J0D01*
G01*
X76012500Y-100350000D02*
G75*
G03*
X76512500Y-99850000I0J500000D01*
G01*
X191100000Y-67800000D02*
X191100000Y-80800000D01*
X191600000Y-81300000D02*
X204600000Y-81300000D01*
X204600000Y-67300000D02*
X191600000Y-67300000D01*
X205100000Y-80800000D02*
X205100000Y-67800000D01*
X191600000Y-67300000D02*
G75*
G03*
X191100000Y-67800000I1J-500001D01*
G01*
X191100000Y-80800000D02*
G75*
G03*
X191600000Y-81300000I500001J1D01*
G01*
X205100000Y-67800000D02*
G75*
G03*
X204600000Y-67300000I-500000J0D01*
G01*
X204600000Y-81300000D02*
G75*
G03*
X205100000Y-80800000I0J500000D01*
G01*
X153000000Y-67800000D02*
X153000000Y-80800000D01*
X153500000Y-81300000D02*
X166500000Y-81300000D01*
X166500000Y-67300000D02*
X153500000Y-67300000D01*
X167000000Y-80800000D02*
X167000000Y-67800000D01*
X153500000Y-67300000D02*
G75*
G03*
X153000000Y-67800000I1J-500001D01*
G01*
X153000000Y-80800000D02*
G75*
G03*
X153500000Y-81300000I500001J1D01*
G01*
X167000000Y-67800000D02*
G75*
G03*
X166500000Y-67300000I-500000J0D01*
G01*
X166500000Y-81300000D02*
G75*
G03*
X167000000Y-80800000I0J500000D01*
G01*
X176812500Y-86850000D02*
X176812500Y-99850000D01*
X177312500Y-100350000D02*
X190312500Y-100350000D01*
X190312500Y-86350000D02*
X177312500Y-86350000D01*
X190812500Y-99850000D02*
X190812500Y-86850000D01*
X177312500Y-86350000D02*
G75*
G03*
X176812500Y-86850000I1J-500001D01*
G01*
X176812500Y-99850000D02*
G75*
G03*
X177312500Y-100350000I500001J1D01*
G01*
X190812500Y-86850000D02*
G75*
G03*
X190312500Y-86350000I-500000J0D01*
G01*
X190312500Y-100350000D02*
G75*
G03*
X190812500Y-99850000I0J500000D01*
G01*
X157762500Y-86850000D02*
X157762500Y-99850000D01*
X158262500Y-100350000D02*
X171262500Y-100350000D01*
X171262500Y-86350000D02*
X158262500Y-86350000D01*
X171762500Y-99850000D02*
X171762500Y-86850000D01*
X158262500Y-86350000D02*
G75*
G03*
X157762500Y-86850000I1J-500001D01*
G01*
X157762500Y-99850000D02*
G75*
G03*
X158262500Y-100350000I500001J1D01*
G01*
X171762500Y-86850000D02*
G75*
G03*
X171262500Y-86350000I-500000J0D01*
G01*
X171262500Y-100350000D02*
G75*
G03*
X171762500Y-99850000I0J500000D01*
G01*
D12*
X36175000Y-67156250D02*
X36175000Y-119543750D01*
X38556250Y-121925000D02*
X58796875Y-121925000D01*
X59987500Y-123115625D02*
X59987500Y-138593750D01*
X62368750Y-140975000D02*
X238581250Y-140975000D01*
X240962500Y-138593750D02*
X240962500Y-123115625D01*
X242153125Y-121925000D02*
X262393750Y-121925000D01*
X262393750Y-64775000D02*
X38556250Y-64775000D01*
X264775000Y-119543750D02*
X264775000Y-67156250D01*
X38556250Y-64775000D02*
G75*
G03*
X36175000Y-67156250I0J-2381250D01*
G01*
X36175000Y-119543750D02*
G75*
G03*
X38556250Y-121925000I2381250J0D01*
G01*
X59987500Y-123115625D02*
G75*
G03*
X58796875Y-121925000I-1190600J25D01*
G01*
X59987500Y-138593750D02*
G75*
G03*
X62368750Y-140975000I2381250J0D01*
G01*
X242153125Y-121925000D02*
G75*
G03*
X240962500Y-123115625I-25J-1190600D01*
G01*
X238581250Y-140975000D02*
G75*
G03*
X240962500Y-138593750I-50J2381300D01*
G01*
X264775000Y-67156250D02*
G75*
G03*
X262393750Y-64775000I-2381300J-50D01*
G01*
X262393750Y-121925000D02*
G75*
G03*
X264775000Y-119543750I-50J2381300D01*
G01*
X80109958Y-84289904D02*
G75*
G03*
X80109958Y-84289904I-1100000J0D01*
G01*
X82909958Y-122289904D02*
G75*
G03*
X82909958Y-122289904I-1100000J0D01*
G01*
X156409958Y-102689904D02*
G75*
G03*
X156409958Y-102689904I-1100000J0D01*
G01*
X217709958Y-122789904D02*
G75*
G03*
X217709958Y-122789904I-1100000J0D01*
G01*
X227809958Y-83589904D02*
G75*
G03*
X227809958Y-83589904I-1100000J0D01*
G01*
D11*
X248250000Y-67800000D02*
X248250000Y-80800000D01*
X248750000Y-81300000D02*
X261750000Y-81300000D01*
X261750000Y-67300000D02*
X248750000Y-67300000D01*
X262250000Y-80800000D02*
X262250000Y-67800000D01*
X248750000Y-67300000D02*
G75*
G03*
X248250000Y-67800000I1J-500001D01*
G01*
X248250000Y-80800000D02*
G75*
G03*
X248750000Y-81300000I500001J1D01*
G01*
X262250000Y-67800000D02*
G75*
G03*
X261750000Y-67300000I-500000J0D01*
G01*
X261750000Y-81300000D02*
G75*
G03*
X262250000Y-80800000I0J500000D01*
G01*
X133950000Y-67800000D02*
X133950000Y-80800000D01*
X134450000Y-81300000D02*
X147450000Y-81300000D01*
X147450000Y-67300000D02*
X134450000Y-67300000D01*
X147950000Y-80800000D02*
X147950000Y-67800000D01*
X134450000Y-67300000D02*
G75*
G03*
X133950000Y-67800000I1J-500001D01*
G01*
X133950000Y-80800000D02*
G75*
G03*
X134450000Y-81300000I500001J1D01*
G01*
X147950000Y-67800000D02*
G75*
G03*
X147450000Y-67300000I-500000J0D01*
G01*
X147450000Y-81300000D02*
G75*
G03*
X147950000Y-80800000I0J500000D01*
G01*
X91087500Y-105900000D02*
X91087500Y-118900000D01*
X91587500Y-119400000D02*
X104587500Y-119400000D01*
X104587500Y-105400000D02*
X91587500Y-105400000D01*
X105087500Y-118900000D02*
X105087500Y-105900000D01*
X91587500Y-105400000D02*
G75*
G03*
X91087500Y-105900000I1J-500001D01*
G01*
X91087500Y-118900000D02*
G75*
G03*
X91587500Y-119400000I500001J1D01*
G01*
X105087500Y-105900000D02*
G75*
G03*
X104587500Y-105400000I-500000J0D01*
G01*
X104587500Y-119400000D02*
G75*
G03*
X105087500Y-118900000I0J500000D01*
G01*
X148237500Y-105900000D02*
X148237500Y-118900000D01*
X148737500Y-119400000D02*
X161737500Y-119400000D01*
X161737500Y-105400000D02*
X148737500Y-105400000D01*
X162237500Y-118900000D02*
X162237500Y-105900000D01*
X148737500Y-105400000D02*
G75*
G03*
X148237500Y-105900000I1J-500001D01*
G01*
X148237500Y-118900000D02*
G75*
G03*
X148737500Y-119400000I500001J1D01*
G01*
X162237500Y-105900000D02*
G75*
G03*
X161737500Y-105400000I-500000J0D01*
G01*
X161737500Y-119400000D02*
G75*
G03*
X162237500Y-118900000I0J500000D01*
G01*
X41081250Y-86850000D02*
X41081250Y-99850000D01*
X41581250Y-100350000D02*
X54581250Y-100350000D01*
X54581250Y-86350000D02*
X41581250Y-86350000D01*
X55081250Y-99850000D02*
X55081250Y-86850000D01*
X41581250Y-86350000D02*
G75*
G03*
X41081250Y-86850000I1J-500001D01*
G01*
X41081250Y-99850000D02*
G75*
G03*
X41581250Y-100350000I500001J1D01*
G01*
X55081250Y-86850000D02*
G75*
G03*
X54581250Y-86350000I-500000J0D01*
G01*
X54581250Y-100350000D02*
G75*
G03*
X55081250Y-99850000I0J500000D01*
G01*
X195862500Y-86850000D02*
X195862500Y-99850000D01*
X196362500Y-100350000D02*
X209362500Y-100350000D01*
X209362500Y-86350000D02*
X196362500Y-86350000D01*
X209862500Y-99850000D02*
X209862500Y-86850000D01*
X196362500Y-86350000D02*
G75*
G03*
X195862500Y-86850000I1J-500001D01*
G01*
X195862500Y-99850000D02*
G75*
G03*
X196362500Y-100350000I500001J1D01*
G01*
X209862500Y-86850000D02*
G75*
G03*
X209362500Y-86350000I-500000J0D01*
G01*
X209362500Y-100350000D02*
G75*
G03*
X209862500Y-99850000I0J500000D01*
G01*
X224437500Y-105900000D02*
X224437500Y-118900000D01*
X224937500Y-119400000D02*
X240318750Y-119400000D01*
X240318750Y-105400000D02*
X224937500Y-105400000D01*
X240818750Y-118900000D02*
X240818750Y-105900000D01*
X245868750Y-105900000D02*
X245868750Y-118900000D01*
X246368750Y-119400000D02*
X261750000Y-119400000D01*
X261750000Y-105400000D02*
X246368750Y-105400000D01*
X262250000Y-118900000D02*
X262250000Y-105900000D01*
X224937500Y-105400000D02*
G75*
G03*
X224437500Y-105900000I1J-500001D01*
G01*
X224437500Y-118900000D02*
G75*
G03*
X224937500Y-119400000I500001J1D01*
G01*
X240818750Y-105900000D02*
G75*
G03*
X240318750Y-105400000I-500000J0D01*
G01*
X240318750Y-119400000D02*
G75*
G03*
X240818750Y-118900000I0J500000D01*
G01*
X246368750Y-105400000D02*
G75*
G03*
X245868750Y-105900000I0J-500000D01*
G01*
X245868750Y-118900000D02*
G75*
G03*
X246368750Y-119400000I500000J0D01*
G01*
X262250050Y-105900000D02*
G75*
G03*
X261750000Y-105400000I-500100J-100D01*
G01*
X261750000Y-119399950D02*
G75*
G03*
X262250000Y-118900000I50J499950D01*
G01*
X76800000Y-67800000D02*
X76800000Y-80800000D01*
X77300000Y-81300000D02*
X90300000Y-81300000D01*
X90300000Y-67300000D02*
X77300000Y-67300000D01*
X90800000Y-80800000D02*
X90800000Y-67800000D01*
X77300000Y-67300000D02*
G75*
G03*
X76800000Y-67800000I1J-500001D01*
G01*
X76800000Y-80800000D02*
G75*
G03*
X77300000Y-81300000I500001J1D01*
G01*
X90800000Y-67800000D02*
G75*
G03*
X90300000Y-67300000I-500000J0D01*
G01*
X90300000Y-81300000D02*
G75*
G03*
X90800000Y-80800000I0J500000D01*
G01*
X45843750Y-105900000D02*
X45843750Y-118900000D01*
X46343750Y-119400000D02*
X59343750Y-119400000D01*
X59343750Y-105400000D02*
X46343750Y-105400000D01*
X59843750Y-118900000D02*
X59843750Y-105900000D01*
X46343750Y-105400000D02*
G75*
G03*
X45843750Y-105900000I1J-500001D01*
G01*
X45843750Y-118900000D02*
G75*
G03*
X46343750Y-119400000I500001J1D01*
G01*
X59843750Y-105900000D02*
G75*
G03*
X59343750Y-105400000I-500000J0D01*
G01*
X59343750Y-119400000D02*
G75*
G03*
X59843750Y-118900000I0J500000D01*
G01*
X229200000Y-67800000D02*
X229200000Y-80800000D01*
X229700000Y-81300000D02*
X242700000Y-81300000D01*
X242700000Y-67300000D02*
X229700000Y-67300000D01*
X243200000Y-80800000D02*
X243200000Y-67800000D01*
X229700000Y-67300000D02*
G75*
G03*
X229200000Y-67800000I1J-500001D01*
G01*
X229200000Y-80800000D02*
G75*
G03*
X229700000Y-81300000I500001J1D01*
G01*
X243200000Y-67800000D02*
G75*
G03*
X242700000Y-67300000I-500000J0D01*
G01*
X242700000Y-81300000D02*
G75*
G03*
X243200000Y-80800000I0J500000D01*
G01*
X210150000Y-67800000D02*
X210150000Y-80800000D01*
X210650000Y-81300000D02*
X223650000Y-81300000D01*
X223650000Y-67300000D02*
X210650000Y-67300000D01*
X224150000Y-80800000D02*
X224150000Y-67800000D01*
X210650000Y-67300000D02*
G75*
G03*
X210150000Y-67800000I1J-500001D01*
G01*
X210150000Y-80800000D02*
G75*
G03*
X210650000Y-81300000I500001J1D01*
G01*
X224150000Y-67800000D02*
G75*
G03*
X223650000Y-67300000I-500000J0D01*
G01*
X223650000Y-81300000D02*
G75*
G03*
X224150000Y-80800000I0J500000D01*
G01*
X100612500Y-86850000D02*
X100612500Y-99850000D01*
X101112500Y-100350000D02*
X114112500Y-100350000D01*
X114112500Y-86350000D02*
X101112500Y-86350000D01*
X114612500Y-99850000D02*
X114612500Y-86850000D01*
X101112500Y-86350000D02*
G75*
G03*
X100612500Y-86850000I1J-500001D01*
G01*
X100612500Y-99850000D02*
G75*
G03*
X101112500Y-100350000I500001J1D01*
G01*
X114612500Y-86850000D02*
G75*
G03*
X114112500Y-86350000I-500000J0D01*
G01*
X114112500Y-100350000D02*
G75*
G03*
X114612500Y-99850000I0J500000D01*
G01*
X110137500Y-105900000D02*
X110137500Y-118900000D01*
X110637500Y-119400000D02*
X123637500Y-119400000D01*
X123637500Y-105400000D02*
X110637500Y-105400000D01*
X124137500Y-118900000D02*
X124137500Y-105900000D01*
X110637500Y-105400000D02*
G75*
G03*
X110137500Y-105900000I1J-500001D01*
G01*
X110137500Y-118900000D02*
G75*
G03*
X110637500Y-119400000I500001J1D01*
G01*
X124137500Y-105900000D02*
G75*
G03*
X123637500Y-105400000I-500000J0D01*
G01*
X123637500Y-119400000D02*
G75*
G03*
X124137500Y-118900000I0J500000D01*
G01*
X167287500Y-105900000D02*
X167287500Y-118900000D01*
X167787500Y-119400000D02*
X180787500Y-119400000D01*
X180787500Y-105400000D02*
X167787500Y-105400000D01*
X181287500Y-118900000D02*
X181287500Y-105900000D01*
X167787500Y-105400000D02*
G75*
G03*
X167287500Y-105900000I1J-500001D01*
G01*
X167287500Y-118900000D02*
G75*
G03*
X167787500Y-119400000I500001J1D01*
G01*
X181287500Y-105900000D02*
G75*
G03*
X180787500Y-105400000I-500000J0D01*
G01*
X180787500Y-119400000D02*
G75*
G03*
X181287500Y-118900000I0J500000D01*
G01*
X129187500Y-105900000D02*
X129187500Y-118900000D01*
X129687500Y-119400000D02*
X142687500Y-119400000D01*
X142687500Y-105400000D02*
X129687500Y-105400000D01*
X143187500Y-118900000D02*
X143187500Y-105900000D01*
X129687500Y-105400000D02*
G75*
G03*
X129187500Y-105900000I1J-500001D01*
G01*
X129187500Y-118900000D02*
G75*
G03*
X129687500Y-119400000I500001J1D01*
G01*
X143187500Y-105900000D02*
G75*
G03*
X142687500Y-105400000I-500000J0D01*
G01*
X142687500Y-119400000D02*
G75*
G03*
X143187500Y-118900000I0J500000D01*
G01*
X38700000Y-67800000D02*
X38700000Y-80800000D01*
X39200000Y-81300000D02*
X52200000Y-81300000D01*
X52200000Y-67300000D02*
X39200000Y-67300000D01*
X52700000Y-80800000D02*
X52700000Y-67800000D01*
X39200000Y-67300000D02*
G75*
G03*
X38700000Y-67800000I1J-500001D01*
G01*
X38700000Y-80800000D02*
G75*
G03*
X39200000Y-81300000I500001J1D01*
G01*
X52700000Y-67800000D02*
G75*
G03*
X52200000Y-67300000I-500000J0D01*
G01*
X52200000Y-81300000D02*
G75*
G03*
X52700000Y-80800000I0J500000D01*
G01*
X57750000Y-67800000D02*
X57750000Y-80800000D01*
X58250000Y-81300000D02*
X71250000Y-81300000D01*
X71250000Y-67300000D02*
X58250000Y-67300000D01*
X71750000Y-80800000D02*
X71750000Y-67800000D01*
X58250000Y-67300000D02*
G75*
G03*
X57750000Y-67800000I1J-500001D01*
G01*
X57750000Y-80800000D02*
G75*
G03*
X58250000Y-81300000I500001J1D01*
G01*
X71750000Y-67800000D02*
G75*
G03*
X71250000Y-67300000I-500000J0D01*
G01*
X71250000Y-81300000D02*
G75*
G03*
X71750000Y-80800000I0J500000D01*
G01*
X119662500Y-86850000D02*
X119662500Y-99850000D01*
X120162500Y-100350000D02*
X133162500Y-100350000D01*
X133162500Y-86350000D02*
X120162500Y-86350000D01*
X133662500Y-99850000D02*
X133662500Y-86850000D01*
X120162500Y-86350000D02*
G75*
G03*
X119662500Y-86850000I1J-500001D01*
G01*
X119662500Y-99850000D02*
G75*
G03*
X120162500Y-100350000I500001J1D01*
G01*
X133662500Y-86850000D02*
G75*
G03*
X133162500Y-86350000I-500000J0D01*
G01*
X133162500Y-100350000D02*
G75*
G03*
X133662500Y-99850000I0J500000D01*
G01*
X172050000Y-67800000D02*
X172050000Y-80800000D01*
X172550000Y-81300000D02*
X185550000Y-81300000D01*
X185550000Y-67300000D02*
X172550000Y-67300000D01*
X186050000Y-80800000D02*
X186050000Y-67800000D01*
X172550000Y-67300000D02*
G75*
G03*
X172050000Y-67800000I1J-500001D01*
G01*
X172050000Y-80800000D02*
G75*
G03*
X172550000Y-81300000I500001J1D01*
G01*
X186050000Y-67800000D02*
G75*
G03*
X185550000Y-67300000I-500000J0D01*
G01*
X185550000Y-81300000D02*
G75*
G03*
X186050000Y-80800000I0J500000D01*
G01*
X72037500Y-105900000D02*
X72037500Y-118900000D01*
X72537500Y-119400000D02*
X85537500Y-119400000D01*
X85537500Y-105400000D02*
X72537500Y-105400000D01*
X86037500Y-118900000D02*
X86037500Y-105900000D01*
X72537500Y-105400000D02*
G75*
G03*
X72037500Y-105900000I1J-500001D01*
G01*
X72037500Y-118900000D02*
G75*
G03*
X72537500Y-119400000I500001J1D01*
G01*
X86037500Y-105900000D02*
G75*
G03*
X85537500Y-105400000I-500000J0D01*
G01*
X85537500Y-119400000D02*
G75*
G03*
X86037500Y-118900000I0J500000D01*
G01*
X95850000Y-67800000D02*
X95850000Y-80800000D01*
X96350000Y-81300000D02*
X109350000Y-81300000D01*
X109350000Y-67300000D02*
X96350000Y-67300000D01*
X109850000Y-80800000D02*
X109850000Y-67800000D01*
X96350000Y-67300000D02*
G75*
G03*
X95850000Y-67800000I1J-500001D01*
G01*
X95850000Y-80800000D02*
G75*
G03*
X96350000Y-81300000I500001J1D01*
G01*
X109850000Y-67800000D02*
G75*
G03*
X109350000Y-67300000I-500000J0D01*
G01*
X109350000Y-81300000D02*
G75*
G03*
X109850000Y-80800000I0J500000D01*
G01*
X186337500Y-105900000D02*
X186337500Y-118900000D01*
X186837500Y-119400000D02*
X199837500Y-119400000D01*
X199837500Y-105400000D02*
X186837500Y-105400000D01*
X200337500Y-118900000D02*
X200337500Y-105900000D01*
X186837500Y-105400000D02*
G75*
G03*
X186337500Y-105900000I1J-500001D01*
G01*
X186337500Y-118900000D02*
G75*
G03*
X186837500Y-119400000I500001J1D01*
G01*
X200337500Y-105900000D02*
G75*
G03*
X199837500Y-105400000I-500000J0D01*
G01*
X199837500Y-119400000D02*
G75*
G03*
X200337500Y-118900000I0J500000D01*
G01*
X138712500Y-86850000D02*
X138712500Y-99850000D01*
X139212500Y-100350000D02*
X152212500Y-100350000D01*
X152212500Y-86350000D02*
X139212500Y-86350000D01*
X152712500Y-99850000D02*
X152712500Y-86850000D01*
X139212500Y-86350000D02*
G75*
G03*
X138712500Y-86850000I1J-500001D01*
G01*
X138712500Y-99850000D02*
G75*
G03*
X139212500Y-100350000I500001J1D01*
G01*
X152712500Y-86850000D02*
G75*
G03*
X152212500Y-86350000I-500000J0D01*
G01*
X152212500Y-100350000D02*
G75*
G03*
X152712500Y-99850000I0J500000D01*
G01*
X62512500Y-124950000D02*
X62512500Y-137950000D01*
X63012500Y-138450000D02*
X78393750Y-138450000D01*
X78393750Y-124450000D02*
X63012500Y-124450000D01*
X78893750Y-137950000D02*
X78893750Y-124950000D01*
X83943750Y-124950000D02*
X83943750Y-137950000D01*
X84443750Y-138450000D02*
X97443750Y-138450000D01*
X89325000Y-124450000D02*
X84443750Y-124450000D01*
X89825000Y-123950000D02*
X89825000Y-122950000D01*
X90325000Y-122450000D02*
X96325000Y-122450000D01*
X96825000Y-122950000D02*
X96825000Y-123950000D01*
X97443750Y-124450000D02*
X97325000Y-124450000D01*
X97943750Y-137950000D02*
X97943750Y-124950000D01*
X113637500Y-136950000D02*
X113637500Y-122950000D01*
X114137500Y-122450000D02*
X120137500Y-122450000D01*
X120137500Y-137450000D02*
X114137500Y-137450000D01*
X120637500Y-122950000D02*
X120637500Y-136950000D01*
X122043750Y-137950000D02*
X122043750Y-124950000D01*
X122543750Y-124450000D02*
X135543750Y-124450000D01*
X135543750Y-138450000D02*
X122543750Y-138450000D01*
X136043750Y-124950000D02*
X136043750Y-137950000D01*
X137450000Y-136950000D02*
X137450000Y-122950000D01*
X137950000Y-122450000D02*
X143950000Y-122450000D01*
X142975000Y-137450000D02*
X137950000Y-137450000D01*
X143475000Y-137950000D02*
X143475000Y-137950000D01*
X144450000Y-122950000D02*
X144450000Y-123950000D01*
X144950000Y-124450000D02*
X156975000Y-124450000D01*
X156975000Y-138450000D02*
X143975000Y-138450000D01*
X157475000Y-124950000D02*
X157475000Y-137950000D01*
X161262500Y-136950000D02*
X161262500Y-122950000D01*
X161762500Y-122450000D02*
X167762500Y-122450000D01*
X167762500Y-137450000D02*
X161762500Y-137450000D01*
X168262500Y-122950000D02*
X168262500Y-136950000D01*
X169668750Y-137950000D02*
X169668750Y-124950000D01*
X170168750Y-124450000D02*
X183168750Y-124450000D01*
X183168750Y-138450000D02*
X170168750Y-138450000D01*
X183668750Y-124950000D02*
X183668750Y-137950000D01*
X185075000Y-136950000D02*
X185075000Y-122950000D01*
X185575000Y-122450000D02*
X191575000Y-122450000D01*
X191575000Y-137450000D02*
X185575000Y-137450000D01*
X192075000Y-122950000D02*
X192075000Y-136950000D01*
X203006250Y-124950000D02*
X203006250Y-137950000D01*
X203506250Y-138450000D02*
X216506250Y-138450000D01*
X203625000Y-124450000D02*
X203506250Y-124450000D01*
X204125000Y-123950000D02*
X204125000Y-122950000D01*
X204625000Y-122450000D02*
X210625000Y-122450000D01*
X211125000Y-122950000D02*
X211125000Y-123950000D01*
X216506250Y-124450000D02*
X211625000Y-124450000D01*
X217006250Y-137950000D02*
X217006250Y-124950000D01*
X222056250Y-124950000D02*
X222056250Y-137950000D01*
X222556250Y-138450000D02*
X237937500Y-138450000D01*
X237937500Y-124450000D02*
X222556250Y-124450000D01*
X238437500Y-137950000D02*
X238437500Y-124950000D01*
X63012500Y-124450000D02*
G75*
G03*
X62512500Y-124950000I1J-500001D01*
G01*
X62512500Y-137950000D02*
G75*
G03*
X63012500Y-138450000I500001J1D01*
G01*
X78893750Y-124950000D02*
G75*
G03*
X78393750Y-124450000I-500001J-1D01*
G01*
X78393750Y-138450000D02*
G75*
G03*
X78893750Y-137950000I-1J500001D01*
G01*
X84443750Y-124450000D02*
G75*
G03*
X83943750Y-124950000I1J-500001D01*
G01*
X83943750Y-137950000D02*
G75*
G03*
X84443750Y-138450000I500001J1D01*
G01*
X90325000Y-122450000D02*
G75*
G03*
X89825000Y-122950000I1J-500001D01*
G01*
X89325000Y-124450000D02*
G75*
G03*
X89825000Y-123950000I-1J500001D01*
G01*
X96825000Y-122950000D02*
G75*
G03*
X96325001Y-122449999I-500000J1D01*
G01*
X96825000Y-123950000D02*
G75*
G03*
X97325000Y-124450000I500001J1D01*
G01*
X97943750Y-124950000D02*
G75*
G03*
X97443750Y-124450000I-500001J-1D01*
G01*
X97443750Y-138450000D02*
G75*
G03*
X97943750Y-137950000I-1J500001D01*
G01*
X114137500Y-122450000D02*
G75*
G03*
X113637500Y-122950000I1J-500001D01*
G01*
X113637500Y-136950000D02*
G75*
G03*
X114137500Y-137450000I500001J1D01*
G01*
X120637500Y-122950000D02*
G75*
G03*
X120137500Y-122450000I-500001J-1D01*
G01*
X120137500Y-137450000D02*
G75*
G03*
X120637500Y-136950000I-1J500001D01*
G01*
X122543750Y-124450000D02*
G75*
G03*
X122043750Y-124950000I1J-500001D01*
G01*
X122043750Y-137950000D02*
G75*
G03*
X122543750Y-138450000I500001J1D01*
G01*
X136043750Y-124950000D02*
G75*
G03*
X135543750Y-124450000I-500000J0D01*
G01*
X135543750Y-138450000D02*
G75*
G03*
X136043750Y-137950000I0J500000D01*
G01*
X137950000Y-122449999D02*
G75*
G03*
X137449999Y-122949999I30J-500031D01*
G01*
X137450049Y-136950000D02*
G75*
G03*
X137949999Y-137450001I499901J-100D01*
G01*
X143474950Y-137950000D02*
G75*
G03*
X142975000Y-137450000I-500000J0D01*
G01*
X144450050Y-122950000D02*
G75*
G03*
X143950000Y-122450000I-500100J-100D01*
G01*
X143474950Y-137950000D02*
G75*
G03*
X143975000Y-138450000I500100J100D01*
G01*
X144450050Y-123950000D02*
G75*
G03*
X144950000Y-124450000I500000J0D01*
G01*
X157475050Y-124950000D02*
G75*
G03*
X156975000Y-124450000I-500100J-100D01*
G01*
X156975000Y-138449950D02*
G75*
G03*
X157475000Y-137950000I50J499950D01*
G01*
X161762500Y-122450050D02*
G75*
G03*
X161262500Y-122950000I-50J-499950D01*
G01*
X161262450Y-136950000D02*
G75*
G03*
X161762500Y-137450000I500100J100D01*
G01*
X168262550Y-122950000D02*
G75*
G03*
X167762500Y-122450000I-500100J-100D01*
G01*
X167762500Y-137449950D02*
G75*
G03*
X168262500Y-136950000I50J499950D01*
G01*
X170168750Y-124450000D02*
G75*
G03*
X169668750Y-124950000I0J-500000D01*
G01*
X169668750Y-137950000D02*
G75*
G03*
X170168750Y-138450000I500000J0D01*
G01*
X183668750Y-124950000D02*
G75*
G03*
X183168750Y-124450000I-500000J0D01*
G01*
X183168750Y-138450000D02*
G75*
G03*
X183668750Y-137950000I0J500000D01*
G01*
X185575000Y-122449949D02*
G75*
G03*
X185074999Y-122949999I50J-500051D01*
G01*
X185075049Y-136950000D02*
G75*
G03*
X185574999Y-137450001I499901J-100D01*
G01*
X192075050Y-122950000D02*
G75*
G03*
X191575000Y-122450000I-500100J-100D01*
G01*
X191575000Y-137450051D02*
G75*
G03*
X192075001Y-136950001I-50J500051D01*
G01*
X203506250Y-124450000D02*
G75*
G03*
X203006250Y-124950000I0J-500000D01*
G01*
X203006250Y-137950000D02*
G75*
G03*
X203506250Y-138450000I500000J0D01*
G01*
X204625000Y-122450050D02*
G75*
G03*
X204125000Y-122950000I-50J-499950D01*
G01*
X203625000Y-124450050D02*
G75*
G03*
X204125000Y-123950000I-50J500050D01*
G01*
X211124951Y-122950000D02*
G75*
G03*
X210625001Y-122449999I-499901J100D01*
G01*
X211125050Y-123950000D02*
G75*
G03*
X211625000Y-124450000I500000J0D01*
G01*
X217006250Y-124950000D02*
G75*
G03*
X216506250Y-124450000I-500000J0D01*
G01*
X216506250Y-138450000D02*
G75*
G03*
X217006250Y-137950000I0J500000D01*
G01*
X222556250Y-124450000D02*
G75*
G03*
X222056250Y-124950000I0J-500000D01*
G01*
X222056250Y-137950000D02*
G75*
G03*
X222556250Y-138450000I500000J0D01*
G01*
X238437550Y-124950000D02*
G75*
G03*
X237937500Y-124450000I-500100J-100D01*
G01*
X237937500Y-138449950D02*
G75*
G03*
X238437500Y-137950000I50J499950D01*
G01*
X214912500Y-86850000D02*
X214912500Y-99850000D01*
X215412500Y-100350000D02*
X228412500Y-100350000D01*
X228412500Y-86350000D02*
X215412500Y-86350000D01*
X228912500Y-99850000D02*
X228912500Y-86850000D01*
X215412500Y-86350000D02*
G75*
G03*
X214912500Y-86850000I1J-500001D01*
G01*
X214912500Y-99850000D02*
G75*
G03*
X215412500Y-100350000I500001J1D01*
G01*
X228912500Y-86850000D02*
G75*
G03*
X228412500Y-86350000I-500000J0D01*
G01*
X228412500Y-100350000D02*
G75*
G03*
X228912500Y-99850000I0J500000D01*
G01*
X81562500Y-86850000D02*
X81562500Y-99850000D01*
X82062500Y-100350000D02*
X95062500Y-100350000D01*
X95062500Y-86350000D02*
X82062500Y-86350000D01*
X95562500Y-99850000D02*
X95562500Y-86850000D01*
X82062500Y-86350000D02*
G75*
G03*
X81562500Y-86850000I1J-500001D01*
G01*
X81562500Y-99850000D02*
G75*
G03*
X82062500Y-100350000I500001J1D01*
G01*
X95562500Y-86850000D02*
G75*
G03*
X95062500Y-86350000I-500000J0D01*
G01*
X95062500Y-100350000D02*
G75*
G03*
X95562500Y-99850000I0J500000D01*
G01*
X241106250Y-86850000D02*
X241106250Y-99850000D01*
X241606250Y-100350000D02*
X254606250Y-100350000D01*
X254606250Y-86350000D02*
X241606250Y-86350000D01*
X255106250Y-99850000D02*
X255106250Y-86850000D01*
X241606250Y-86350000D02*
G75*
G03*
X241106250Y-86850000I1J-500001D01*
G01*
X241106250Y-99850000D02*
G75*
G03*
X241606250Y-100350000I500001J1D01*
G01*
X255106250Y-86850000D02*
G75*
G03*
X254606250Y-86350000I-500000J0D01*
G01*
X254606250Y-100350000D02*
G75*
G03*
X255106250Y-99850000I0J500000D01*
G01*
X114900000Y-67800000D02*
X114900000Y-80800000D01*
X115400000Y-81300000D02*
X128400000Y-81300000D01*
X128400000Y-67300000D02*
X115400000Y-67300000D01*
X128900000Y-80800000D02*
X128900000Y-67800000D01*
X115400000Y-67300000D02*
G75*
G03*
X114900000Y-67800000I1J-500001D01*
G01*
X114900000Y-80800000D02*
G75*
G03*
X115400000Y-81300000I500001J1D01*
G01*
X128900000Y-67800000D02*
G75*
G03*
X128400000Y-67300000I-500000J0D01*
G01*
X128400000Y-81300000D02*
G75*
G03*
X128900000Y-80800000I0J500000D01*
G01*
X205387500Y-105900000D02*
X205387500Y-118900000D01*
X205887500Y-119400000D02*
X218887500Y-119400000D01*
X218887500Y-105400000D02*
X205887500Y-105400000D01*
X219387500Y-118900000D02*
X219387500Y-105900000D01*
X205887500Y-105400000D02*
G75*
G03*
X205387500Y-105900000I1J-500001D01*
G01*
X205387500Y-118900000D02*
G75*
G03*
X205887500Y-119400000I500001J1D01*
G01*
X219387500Y-105900000D02*
G75*
G03*
X218887500Y-105400000I-500000J0D01*
G01*
X218887500Y-119400000D02*
G75*
G03*
X219387500Y-118900000I0J500000D01*
G01*
%TD*%
M02*
