%TF.GenerationSoftware,KiCad,Pcbnew,(7.0.0-0)*%
%TF.CreationDate,2023-04-18T10:09:08-04:00*%
%TF.ProjectId,plate,706c6174-652e-46b6-9963-61645f706362,rev?*%
%TF.SameCoordinates,Original*%
%TF.FileFunction,Drillmap*%
%TF.FilePolarity,Positive*%
%FSLAX45Y45*%
G04 Gerber Fmt 4.5, Leading zero omitted, Abs format (unit mm)*
G04 Created by KiCad (PCBNEW (7.0.0-0)) date 2023-04-18 10:09:08*
%MOMM*%
%LPD*%
G01*
G04 APERTURE LIST*
%ADD10C,0.200000*%
G04 APERTURE END LIST*
D10*
X3860119Y-14395976D02*
X3860119Y-14195976D01*
X3860119Y-14195976D02*
X3907738Y-14195976D01*
X3907738Y-14195976D02*
X3936309Y-14205500D01*
X3936309Y-14205500D02*
X3955357Y-14224548D01*
X3955357Y-14224548D02*
X3964881Y-14243595D01*
X3964881Y-14243595D02*
X3974405Y-14281690D01*
X3974405Y-14281690D02*
X3974405Y-14310262D01*
X3974405Y-14310262D02*
X3964881Y-14348357D01*
X3964881Y-14348357D02*
X3955357Y-14367405D01*
X3955357Y-14367405D02*
X3936309Y-14386452D01*
X3936309Y-14386452D02*
X3907738Y-14395976D01*
X3907738Y-14395976D02*
X3860119Y-14395976D01*
X4060119Y-14395976D02*
X4060119Y-14262643D01*
X4060119Y-14300738D02*
X4069643Y-14281690D01*
X4069643Y-14281690D02*
X4079167Y-14272167D01*
X4079167Y-14272167D02*
X4098214Y-14262643D01*
X4098214Y-14262643D02*
X4117262Y-14262643D01*
X4183928Y-14395976D02*
X4183928Y-14262643D01*
X4183928Y-14195976D02*
X4174405Y-14205500D01*
X4174405Y-14205500D02*
X4183928Y-14215024D01*
X4183928Y-14215024D02*
X4193452Y-14205500D01*
X4193452Y-14205500D02*
X4183928Y-14195976D01*
X4183928Y-14195976D02*
X4183928Y-14215024D01*
X4307738Y-14395976D02*
X4288690Y-14386452D01*
X4288690Y-14386452D02*
X4279167Y-14367405D01*
X4279167Y-14367405D02*
X4279167Y-14195976D01*
X4412500Y-14395976D02*
X4393452Y-14386452D01*
X4393452Y-14386452D02*
X4383929Y-14367405D01*
X4383929Y-14367405D02*
X4383929Y-14195976D01*
X4608690Y-14395976D02*
X4608690Y-14195976D01*
X4608690Y-14195976D02*
X4675357Y-14338833D01*
X4675357Y-14338833D02*
X4742024Y-14195976D01*
X4742024Y-14195976D02*
X4742024Y-14395976D01*
X4922976Y-14395976D02*
X4922976Y-14291214D01*
X4922976Y-14291214D02*
X4913452Y-14272167D01*
X4913452Y-14272167D02*
X4894405Y-14262643D01*
X4894405Y-14262643D02*
X4856309Y-14262643D01*
X4856309Y-14262643D02*
X4837262Y-14272167D01*
X4922976Y-14386452D02*
X4903929Y-14395976D01*
X4903929Y-14395976D02*
X4856309Y-14395976D01*
X4856309Y-14395976D02*
X4837262Y-14386452D01*
X4837262Y-14386452D02*
X4827738Y-14367405D01*
X4827738Y-14367405D02*
X4827738Y-14348357D01*
X4827738Y-14348357D02*
X4837262Y-14329309D01*
X4837262Y-14329309D02*
X4856309Y-14319786D01*
X4856309Y-14319786D02*
X4903929Y-14319786D01*
X4903929Y-14319786D02*
X4922976Y-14310262D01*
X5018214Y-14262643D02*
X5018214Y-14462643D01*
X5018214Y-14272167D02*
X5037262Y-14262643D01*
X5037262Y-14262643D02*
X5075357Y-14262643D01*
X5075357Y-14262643D02*
X5094405Y-14272167D01*
X5094405Y-14272167D02*
X5103929Y-14281690D01*
X5103929Y-14281690D02*
X5113452Y-14300738D01*
X5113452Y-14300738D02*
X5113452Y-14357881D01*
X5113452Y-14357881D02*
X5103929Y-14376928D01*
X5103929Y-14376928D02*
X5094405Y-14386452D01*
X5094405Y-14386452D02*
X5075357Y-14395976D01*
X5075357Y-14395976D02*
X5037262Y-14395976D01*
X5037262Y-14395976D02*
X5018214Y-14386452D01*
X5199167Y-14376928D02*
X5208690Y-14386452D01*
X5208690Y-14386452D02*
X5199167Y-14395976D01*
X5199167Y-14395976D02*
X5189643Y-14386452D01*
X5189643Y-14386452D02*
X5199167Y-14376928D01*
X5199167Y-14376928D02*
X5199167Y-14395976D01*
X5199167Y-14272167D02*
X5208690Y-14281690D01*
X5208690Y-14281690D02*
X5199167Y-14291214D01*
X5199167Y-14291214D02*
X5189643Y-14281690D01*
X5189643Y-14281690D02*
X5199167Y-14272167D01*
X5199167Y-14272167D02*
X5199167Y-14291214D01*
M02*
