%TF.GenerationSoftware,KiCad,Pcbnew,(7.0.0-0)*%
%TF.CreationDate,2023-04-18T10:09:08-04:00*%
%TF.ProjectId,plate,706c6174-652e-46b6-9963-61645f706362,rev?*%
%TF.SameCoordinates,Original*%
%TF.FileFunction,Drillmap*%
%TF.FilePolarity,Positive*%
%FSLAX45Y45*%
G04 Gerber Fmt 4.5, Leading zero omitted, Abs format (unit mm)*
G04 Created by KiCad (PCBNEW (7.0.0-0)) date 2023-04-18 10:09:08*
%MOMM*%
%LPD*%
G01*
G04 APERTURE LIST*
%ADD10C,0.200000*%
%ADD11C,0.510000*%
G04 APERTURE END LIST*
D10*
D11*
X7645996Y-8173990D02*
X8155996Y-8683990D01*
X8155996Y-8173990D02*
X7645996Y-8683990D01*
X7925996Y-11973990D02*
X8435996Y-12483990D01*
X8435996Y-11973990D02*
X7925996Y-12483990D01*
X15275996Y-10013990D02*
X15785996Y-10523990D01*
X15785996Y-10013990D02*
X15275996Y-10523990D01*
X21405996Y-12023990D02*
X21915996Y-12533990D01*
X21915996Y-12023990D02*
X21405996Y-12533990D01*
X22415996Y-8103990D02*
X22925996Y-8613990D01*
X22925996Y-8103990D02*
X22415996Y-8613990D01*
D10*
X3860119Y-14395976D02*
X3860119Y-14195976D01*
X3860119Y-14195976D02*
X3907738Y-14195976D01*
X3907738Y-14195976D02*
X3936309Y-14205500D01*
X3936309Y-14205500D02*
X3955357Y-14224548D01*
X3955357Y-14224548D02*
X3964881Y-14243595D01*
X3964881Y-14243595D02*
X3974405Y-14281690D01*
X3974405Y-14281690D02*
X3974405Y-14310262D01*
X3974405Y-14310262D02*
X3964881Y-14348357D01*
X3964881Y-14348357D02*
X3955357Y-14367405D01*
X3955357Y-14367405D02*
X3936309Y-14386452D01*
X3936309Y-14386452D02*
X3907738Y-14395976D01*
X3907738Y-14395976D02*
X3860119Y-14395976D01*
X4060119Y-14395976D02*
X4060119Y-14262643D01*
X4060119Y-14300738D02*
X4069643Y-14281690D01*
X4069643Y-14281690D02*
X4079167Y-14272167D01*
X4079167Y-14272167D02*
X4098214Y-14262643D01*
X4098214Y-14262643D02*
X4117262Y-14262643D01*
X4183928Y-14395976D02*
X4183928Y-14262643D01*
X4183928Y-14195976D02*
X4174405Y-14205500D01*
X4174405Y-14205500D02*
X4183928Y-14215024D01*
X4183928Y-14215024D02*
X4193452Y-14205500D01*
X4193452Y-14205500D02*
X4183928Y-14195976D01*
X4183928Y-14195976D02*
X4183928Y-14215024D01*
X4307738Y-14395976D02*
X4288690Y-14386452D01*
X4288690Y-14386452D02*
X4279167Y-14367405D01*
X4279167Y-14367405D02*
X4279167Y-14195976D01*
X4412500Y-14395976D02*
X4393452Y-14386452D01*
X4393452Y-14386452D02*
X4383929Y-14367405D01*
X4383929Y-14367405D02*
X4383929Y-14195976D01*
X4608690Y-14395976D02*
X4608690Y-14195976D01*
X4608690Y-14195976D02*
X4675357Y-14338833D01*
X4675357Y-14338833D02*
X4742024Y-14195976D01*
X4742024Y-14195976D02*
X4742024Y-14395976D01*
X4922976Y-14395976D02*
X4922976Y-14291214D01*
X4922976Y-14291214D02*
X4913452Y-14272167D01*
X4913452Y-14272167D02*
X4894405Y-14262643D01*
X4894405Y-14262643D02*
X4856309Y-14262643D01*
X4856309Y-14262643D02*
X4837262Y-14272167D01*
X4922976Y-14386452D02*
X4903929Y-14395976D01*
X4903929Y-14395976D02*
X4856309Y-14395976D01*
X4856309Y-14395976D02*
X4837262Y-14386452D01*
X4837262Y-14386452D02*
X4827738Y-14367405D01*
X4827738Y-14367405D02*
X4827738Y-14348357D01*
X4827738Y-14348357D02*
X4837262Y-14329309D01*
X4837262Y-14329309D02*
X4856309Y-14319786D01*
X4856309Y-14319786D02*
X4903929Y-14319786D01*
X4903929Y-14319786D02*
X4922976Y-14310262D01*
X5018214Y-14262643D02*
X5018214Y-14462643D01*
X5018214Y-14272167D02*
X5037262Y-14262643D01*
X5037262Y-14262643D02*
X5075357Y-14262643D01*
X5075357Y-14262643D02*
X5094405Y-14272167D01*
X5094405Y-14272167D02*
X5103929Y-14281690D01*
X5103929Y-14281690D02*
X5113452Y-14300738D01*
X5113452Y-14300738D02*
X5113452Y-14357881D01*
X5113452Y-14357881D02*
X5103929Y-14376928D01*
X5103929Y-14376928D02*
X5094405Y-14386452D01*
X5094405Y-14386452D02*
X5075357Y-14395976D01*
X5075357Y-14395976D02*
X5037262Y-14395976D01*
X5037262Y-14395976D02*
X5018214Y-14386452D01*
X5199167Y-14376928D02*
X5208690Y-14386452D01*
X5208690Y-14386452D02*
X5199167Y-14395976D01*
X5199167Y-14395976D02*
X5189643Y-14386452D01*
X5189643Y-14386452D02*
X5199167Y-14376928D01*
X5199167Y-14376928D02*
X5199167Y-14395976D01*
X5199167Y-14272167D02*
X5208690Y-14281690D01*
X5208690Y-14281690D02*
X5199167Y-14291214D01*
X5199167Y-14291214D02*
X5189643Y-14281690D01*
X5189643Y-14281690D02*
X5199167Y-14272167D01*
X5199167Y-14272167D02*
X5199167Y-14291214D01*
X3412500Y-14642500D02*
X3612500Y-14842500D01*
X3612500Y-14642500D02*
X3412500Y-14842500D01*
X3955357Y-14615976D02*
X3860119Y-14615976D01*
X3860119Y-14615976D02*
X3850595Y-14711214D01*
X3850595Y-14711214D02*
X3860119Y-14701690D01*
X3860119Y-14701690D02*
X3879167Y-14692167D01*
X3879167Y-14692167D02*
X3926786Y-14692167D01*
X3926786Y-14692167D02*
X3945833Y-14701690D01*
X3945833Y-14701690D02*
X3955357Y-14711214D01*
X3955357Y-14711214D02*
X3964881Y-14730262D01*
X3964881Y-14730262D02*
X3964881Y-14777881D01*
X3964881Y-14777881D02*
X3955357Y-14796928D01*
X3955357Y-14796928D02*
X3945833Y-14806452D01*
X3945833Y-14806452D02*
X3926786Y-14815976D01*
X3926786Y-14815976D02*
X3879167Y-14815976D01*
X3879167Y-14815976D02*
X3860119Y-14806452D01*
X3860119Y-14806452D02*
X3850595Y-14796928D01*
X4050595Y-14796928D02*
X4060119Y-14806452D01*
X4060119Y-14806452D02*
X4050595Y-14815976D01*
X4050595Y-14815976D02*
X4041071Y-14806452D01*
X4041071Y-14806452D02*
X4050595Y-14796928D01*
X4050595Y-14796928D02*
X4050595Y-14815976D01*
X4250595Y-14815976D02*
X4136309Y-14815976D01*
X4193452Y-14815976D02*
X4193452Y-14615976D01*
X4193452Y-14615976D02*
X4174405Y-14644548D01*
X4174405Y-14644548D02*
X4155357Y-14663595D01*
X4155357Y-14663595D02*
X4136309Y-14673119D01*
X4374405Y-14615976D02*
X4393452Y-14615976D01*
X4393452Y-14615976D02*
X4412500Y-14625500D01*
X4412500Y-14625500D02*
X4422024Y-14635024D01*
X4422024Y-14635024D02*
X4431548Y-14654071D01*
X4431548Y-14654071D02*
X4441071Y-14692167D01*
X4441071Y-14692167D02*
X4441071Y-14739786D01*
X4441071Y-14739786D02*
X4431548Y-14777881D01*
X4431548Y-14777881D02*
X4422024Y-14796928D01*
X4422024Y-14796928D02*
X4412500Y-14806452D01*
X4412500Y-14806452D02*
X4393452Y-14815976D01*
X4393452Y-14815976D02*
X4374405Y-14815976D01*
X4374405Y-14815976D02*
X4355357Y-14806452D01*
X4355357Y-14806452D02*
X4345833Y-14796928D01*
X4345833Y-14796928D02*
X4336310Y-14777881D01*
X4336310Y-14777881D02*
X4326786Y-14739786D01*
X4326786Y-14739786D02*
X4326786Y-14692167D01*
X4326786Y-14692167D02*
X4336310Y-14654071D01*
X4336310Y-14654071D02*
X4345833Y-14635024D01*
X4345833Y-14635024D02*
X4355357Y-14625500D01*
X4355357Y-14625500D02*
X4374405Y-14615976D01*
X4564881Y-14615976D02*
X4583929Y-14615976D01*
X4583929Y-14615976D02*
X4602976Y-14625500D01*
X4602976Y-14625500D02*
X4612500Y-14635024D01*
X4612500Y-14635024D02*
X4622024Y-14654071D01*
X4622024Y-14654071D02*
X4631548Y-14692167D01*
X4631548Y-14692167D02*
X4631548Y-14739786D01*
X4631548Y-14739786D02*
X4622024Y-14777881D01*
X4622024Y-14777881D02*
X4612500Y-14796928D01*
X4612500Y-14796928D02*
X4602976Y-14806452D01*
X4602976Y-14806452D02*
X4583929Y-14815976D01*
X4583929Y-14815976D02*
X4564881Y-14815976D01*
X4564881Y-14815976D02*
X4545833Y-14806452D01*
X4545833Y-14806452D02*
X4536310Y-14796928D01*
X4536310Y-14796928D02*
X4526786Y-14777881D01*
X4526786Y-14777881D02*
X4517262Y-14739786D01*
X4517262Y-14739786D02*
X4517262Y-14692167D01*
X4517262Y-14692167D02*
X4526786Y-14654071D01*
X4526786Y-14654071D02*
X4536310Y-14635024D01*
X4536310Y-14635024D02*
X4545833Y-14625500D01*
X4545833Y-14625500D02*
X4564881Y-14615976D01*
X4717262Y-14815976D02*
X4717262Y-14682643D01*
X4717262Y-14701690D02*
X4726786Y-14692167D01*
X4726786Y-14692167D02*
X4745833Y-14682643D01*
X4745833Y-14682643D02*
X4774405Y-14682643D01*
X4774405Y-14682643D02*
X4793452Y-14692167D01*
X4793452Y-14692167D02*
X4802976Y-14711214D01*
X4802976Y-14711214D02*
X4802976Y-14815976D01*
X4802976Y-14711214D02*
X4812500Y-14692167D01*
X4812500Y-14692167D02*
X4831548Y-14682643D01*
X4831548Y-14682643D02*
X4860119Y-14682643D01*
X4860119Y-14682643D02*
X4879167Y-14692167D01*
X4879167Y-14692167D02*
X4888691Y-14711214D01*
X4888691Y-14711214D02*
X4888691Y-14815976D01*
X4983929Y-14815976D02*
X4983929Y-14682643D01*
X4983929Y-14701690D02*
X4993452Y-14692167D01*
X4993452Y-14692167D02*
X5012500Y-14682643D01*
X5012500Y-14682643D02*
X5041072Y-14682643D01*
X5041072Y-14682643D02*
X5060119Y-14692167D01*
X5060119Y-14692167D02*
X5069643Y-14711214D01*
X5069643Y-14711214D02*
X5069643Y-14815976D01*
X5069643Y-14711214D02*
X5079167Y-14692167D01*
X5079167Y-14692167D02*
X5098214Y-14682643D01*
X5098214Y-14682643D02*
X5126786Y-14682643D01*
X5126786Y-14682643D02*
X5145833Y-14692167D01*
X5145833Y-14692167D02*
X5155357Y-14711214D01*
X5155357Y-14711214D02*
X5155357Y-14815976D01*
X5513452Y-14606452D02*
X5342024Y-14863595D01*
X5738214Y-14615976D02*
X5757262Y-14615976D01*
X5757262Y-14615976D02*
X5776310Y-14625500D01*
X5776310Y-14625500D02*
X5785833Y-14635024D01*
X5785833Y-14635024D02*
X5795357Y-14654071D01*
X5795357Y-14654071D02*
X5804881Y-14692167D01*
X5804881Y-14692167D02*
X5804881Y-14739786D01*
X5804881Y-14739786D02*
X5795357Y-14777881D01*
X5795357Y-14777881D02*
X5785833Y-14796928D01*
X5785833Y-14796928D02*
X5776310Y-14806452D01*
X5776310Y-14806452D02*
X5757262Y-14815976D01*
X5757262Y-14815976D02*
X5738214Y-14815976D01*
X5738214Y-14815976D02*
X5719167Y-14806452D01*
X5719167Y-14806452D02*
X5709643Y-14796928D01*
X5709643Y-14796928D02*
X5700119Y-14777881D01*
X5700119Y-14777881D02*
X5690595Y-14739786D01*
X5690595Y-14739786D02*
X5690595Y-14692167D01*
X5690595Y-14692167D02*
X5700119Y-14654071D01*
X5700119Y-14654071D02*
X5709643Y-14635024D01*
X5709643Y-14635024D02*
X5719167Y-14625500D01*
X5719167Y-14625500D02*
X5738214Y-14615976D01*
X5890595Y-14796928D02*
X5900119Y-14806452D01*
X5900119Y-14806452D02*
X5890595Y-14815976D01*
X5890595Y-14815976D02*
X5881071Y-14806452D01*
X5881071Y-14806452D02*
X5890595Y-14796928D01*
X5890595Y-14796928D02*
X5890595Y-14815976D01*
X5976310Y-14635024D02*
X5985833Y-14625500D01*
X5985833Y-14625500D02*
X6004881Y-14615976D01*
X6004881Y-14615976D02*
X6052500Y-14615976D01*
X6052500Y-14615976D02*
X6071548Y-14625500D01*
X6071548Y-14625500D02*
X6081071Y-14635024D01*
X6081071Y-14635024D02*
X6090595Y-14654071D01*
X6090595Y-14654071D02*
X6090595Y-14673119D01*
X6090595Y-14673119D02*
X6081071Y-14701690D01*
X6081071Y-14701690D02*
X5966786Y-14815976D01*
X5966786Y-14815976D02*
X6090595Y-14815976D01*
X6214405Y-14615976D02*
X6233452Y-14615976D01*
X6233452Y-14615976D02*
X6252500Y-14625500D01*
X6252500Y-14625500D02*
X6262024Y-14635024D01*
X6262024Y-14635024D02*
X6271548Y-14654071D01*
X6271548Y-14654071D02*
X6281071Y-14692167D01*
X6281071Y-14692167D02*
X6281071Y-14739786D01*
X6281071Y-14739786D02*
X6271548Y-14777881D01*
X6271548Y-14777881D02*
X6262024Y-14796928D01*
X6262024Y-14796928D02*
X6252500Y-14806452D01*
X6252500Y-14806452D02*
X6233452Y-14815976D01*
X6233452Y-14815976D02*
X6214405Y-14815976D01*
X6214405Y-14815976D02*
X6195357Y-14806452D01*
X6195357Y-14806452D02*
X6185833Y-14796928D01*
X6185833Y-14796928D02*
X6176310Y-14777881D01*
X6176310Y-14777881D02*
X6166786Y-14739786D01*
X6166786Y-14739786D02*
X6166786Y-14692167D01*
X6166786Y-14692167D02*
X6176310Y-14654071D01*
X6176310Y-14654071D02*
X6185833Y-14635024D01*
X6185833Y-14635024D02*
X6195357Y-14625500D01*
X6195357Y-14625500D02*
X6214405Y-14615976D01*
X6404881Y-14615976D02*
X6423929Y-14615976D01*
X6423929Y-14615976D02*
X6442976Y-14625500D01*
X6442976Y-14625500D02*
X6452500Y-14635024D01*
X6452500Y-14635024D02*
X6462024Y-14654071D01*
X6462024Y-14654071D02*
X6471548Y-14692167D01*
X6471548Y-14692167D02*
X6471548Y-14739786D01*
X6471548Y-14739786D02*
X6462024Y-14777881D01*
X6462024Y-14777881D02*
X6452500Y-14796928D01*
X6452500Y-14796928D02*
X6442976Y-14806452D01*
X6442976Y-14806452D02*
X6423929Y-14815976D01*
X6423929Y-14815976D02*
X6404881Y-14815976D01*
X6404881Y-14815976D02*
X6385833Y-14806452D01*
X6385833Y-14806452D02*
X6376310Y-14796928D01*
X6376310Y-14796928D02*
X6366786Y-14777881D01*
X6366786Y-14777881D02*
X6357262Y-14739786D01*
X6357262Y-14739786D02*
X6357262Y-14692167D01*
X6357262Y-14692167D02*
X6366786Y-14654071D01*
X6366786Y-14654071D02*
X6376310Y-14635024D01*
X6376310Y-14635024D02*
X6385833Y-14625500D01*
X6385833Y-14625500D02*
X6404881Y-14615976D01*
X6585833Y-14701690D02*
X6566786Y-14692167D01*
X6566786Y-14692167D02*
X6557262Y-14682643D01*
X6557262Y-14682643D02*
X6547738Y-14663595D01*
X6547738Y-14663595D02*
X6547738Y-14654071D01*
X6547738Y-14654071D02*
X6557262Y-14635024D01*
X6557262Y-14635024D02*
X6566786Y-14625500D01*
X6566786Y-14625500D02*
X6585833Y-14615976D01*
X6585833Y-14615976D02*
X6623929Y-14615976D01*
X6623929Y-14615976D02*
X6642976Y-14625500D01*
X6642976Y-14625500D02*
X6652500Y-14635024D01*
X6652500Y-14635024D02*
X6662024Y-14654071D01*
X6662024Y-14654071D02*
X6662024Y-14663595D01*
X6662024Y-14663595D02*
X6652500Y-14682643D01*
X6652500Y-14682643D02*
X6642976Y-14692167D01*
X6642976Y-14692167D02*
X6623929Y-14701690D01*
X6623929Y-14701690D02*
X6585833Y-14701690D01*
X6585833Y-14701690D02*
X6566786Y-14711214D01*
X6566786Y-14711214D02*
X6557262Y-14720738D01*
X6557262Y-14720738D02*
X6547738Y-14739786D01*
X6547738Y-14739786D02*
X6547738Y-14777881D01*
X6547738Y-14777881D02*
X6557262Y-14796928D01*
X6557262Y-14796928D02*
X6566786Y-14806452D01*
X6566786Y-14806452D02*
X6585833Y-14815976D01*
X6585833Y-14815976D02*
X6623929Y-14815976D01*
X6623929Y-14815976D02*
X6642976Y-14806452D01*
X6642976Y-14806452D02*
X6652500Y-14796928D01*
X6652500Y-14796928D02*
X6662024Y-14777881D01*
X6662024Y-14777881D02*
X6662024Y-14739786D01*
X6662024Y-14739786D02*
X6652500Y-14720738D01*
X6652500Y-14720738D02*
X6642976Y-14711214D01*
X6642976Y-14711214D02*
X6623929Y-14701690D01*
X6738214Y-14615976D02*
X6738214Y-14654071D01*
X6814405Y-14615976D02*
X6814405Y-14654071D01*
X7077262Y-14892167D02*
X7067738Y-14882643D01*
X7067738Y-14882643D02*
X7048691Y-14854071D01*
X7048691Y-14854071D02*
X7039167Y-14835024D01*
X7039167Y-14835024D02*
X7029643Y-14806452D01*
X7029643Y-14806452D02*
X7020119Y-14758833D01*
X7020119Y-14758833D02*
X7020119Y-14720738D01*
X7020119Y-14720738D02*
X7029643Y-14673119D01*
X7029643Y-14673119D02*
X7039167Y-14644548D01*
X7039167Y-14644548D02*
X7048691Y-14625500D01*
X7048691Y-14625500D02*
X7067738Y-14596928D01*
X7067738Y-14596928D02*
X7077262Y-14587405D01*
X7248691Y-14615976D02*
X7153452Y-14615976D01*
X7153452Y-14615976D02*
X7143929Y-14711214D01*
X7143929Y-14711214D02*
X7153452Y-14701690D01*
X7153452Y-14701690D02*
X7172500Y-14692167D01*
X7172500Y-14692167D02*
X7220119Y-14692167D01*
X7220119Y-14692167D02*
X7239167Y-14701690D01*
X7239167Y-14701690D02*
X7248691Y-14711214D01*
X7248691Y-14711214D02*
X7258214Y-14730262D01*
X7258214Y-14730262D02*
X7258214Y-14777881D01*
X7258214Y-14777881D02*
X7248691Y-14796928D01*
X7248691Y-14796928D02*
X7239167Y-14806452D01*
X7239167Y-14806452D02*
X7220119Y-14815976D01*
X7220119Y-14815976D02*
X7172500Y-14815976D01*
X7172500Y-14815976D02*
X7153452Y-14806452D01*
X7153452Y-14806452D02*
X7143929Y-14796928D01*
X7463929Y-14815976D02*
X7463929Y-14615976D01*
X7549643Y-14815976D02*
X7549643Y-14711214D01*
X7549643Y-14711214D02*
X7540119Y-14692167D01*
X7540119Y-14692167D02*
X7521072Y-14682643D01*
X7521072Y-14682643D02*
X7492500Y-14682643D01*
X7492500Y-14682643D02*
X7473452Y-14692167D01*
X7473452Y-14692167D02*
X7463929Y-14701690D01*
X7673452Y-14815976D02*
X7654405Y-14806452D01*
X7654405Y-14806452D02*
X7644881Y-14796928D01*
X7644881Y-14796928D02*
X7635357Y-14777881D01*
X7635357Y-14777881D02*
X7635357Y-14720738D01*
X7635357Y-14720738D02*
X7644881Y-14701690D01*
X7644881Y-14701690D02*
X7654405Y-14692167D01*
X7654405Y-14692167D02*
X7673452Y-14682643D01*
X7673452Y-14682643D02*
X7702024Y-14682643D01*
X7702024Y-14682643D02*
X7721072Y-14692167D01*
X7721072Y-14692167D02*
X7730595Y-14701690D01*
X7730595Y-14701690D02*
X7740119Y-14720738D01*
X7740119Y-14720738D02*
X7740119Y-14777881D01*
X7740119Y-14777881D02*
X7730595Y-14796928D01*
X7730595Y-14796928D02*
X7721072Y-14806452D01*
X7721072Y-14806452D02*
X7702024Y-14815976D01*
X7702024Y-14815976D02*
X7673452Y-14815976D01*
X7854405Y-14815976D02*
X7835357Y-14806452D01*
X7835357Y-14806452D02*
X7825833Y-14787405D01*
X7825833Y-14787405D02*
X7825833Y-14615976D01*
X8006786Y-14806452D02*
X7987738Y-14815976D01*
X7987738Y-14815976D02*
X7949643Y-14815976D01*
X7949643Y-14815976D02*
X7930595Y-14806452D01*
X7930595Y-14806452D02*
X7921072Y-14787405D01*
X7921072Y-14787405D02*
X7921072Y-14711214D01*
X7921072Y-14711214D02*
X7930595Y-14692167D01*
X7930595Y-14692167D02*
X7949643Y-14682643D01*
X7949643Y-14682643D02*
X7987738Y-14682643D01*
X7987738Y-14682643D02*
X8006786Y-14692167D01*
X8006786Y-14692167D02*
X8016310Y-14711214D01*
X8016310Y-14711214D02*
X8016310Y-14730262D01*
X8016310Y-14730262D02*
X7921072Y-14749309D01*
X8092500Y-14806452D02*
X8111548Y-14815976D01*
X8111548Y-14815976D02*
X8149643Y-14815976D01*
X8149643Y-14815976D02*
X8168691Y-14806452D01*
X8168691Y-14806452D02*
X8178214Y-14787405D01*
X8178214Y-14787405D02*
X8178214Y-14777881D01*
X8178214Y-14777881D02*
X8168691Y-14758833D01*
X8168691Y-14758833D02*
X8149643Y-14749309D01*
X8149643Y-14749309D02*
X8121072Y-14749309D01*
X8121072Y-14749309D02*
X8102024Y-14739786D01*
X8102024Y-14739786D02*
X8092500Y-14720738D01*
X8092500Y-14720738D02*
X8092500Y-14711214D01*
X8092500Y-14711214D02*
X8102024Y-14692167D01*
X8102024Y-14692167D02*
X8121072Y-14682643D01*
X8121072Y-14682643D02*
X8149643Y-14682643D01*
X8149643Y-14682643D02*
X8168691Y-14692167D01*
X8244881Y-14892167D02*
X8254405Y-14882643D01*
X8254405Y-14882643D02*
X8273453Y-14854071D01*
X8273453Y-14854071D02*
X8282976Y-14835024D01*
X8282976Y-14835024D02*
X8292500Y-14806452D01*
X8292500Y-14806452D02*
X8302024Y-14758833D01*
X8302024Y-14758833D02*
X8302024Y-14720738D01*
X8302024Y-14720738D02*
X8292500Y-14673119D01*
X8292500Y-14673119D02*
X8282976Y-14644548D01*
X8282976Y-14644548D02*
X8273453Y-14625500D01*
X8273453Y-14625500D02*
X8254405Y-14596928D01*
X8254405Y-14596928D02*
X8244881Y-14587405D01*
X8574405Y-14892167D02*
X8564881Y-14882643D01*
X8564881Y-14882643D02*
X8545834Y-14854071D01*
X8545834Y-14854071D02*
X8536310Y-14835024D01*
X8536310Y-14835024D02*
X8526786Y-14806452D01*
X8526786Y-14806452D02*
X8517262Y-14758833D01*
X8517262Y-14758833D02*
X8517262Y-14720738D01*
X8517262Y-14720738D02*
X8526786Y-14673119D01*
X8526786Y-14673119D02*
X8536310Y-14644548D01*
X8536310Y-14644548D02*
X8545834Y-14625500D01*
X8545834Y-14625500D02*
X8564881Y-14596928D01*
X8564881Y-14596928D02*
X8574405Y-14587405D01*
X8650595Y-14682643D02*
X8650595Y-14815976D01*
X8650595Y-14701690D02*
X8660119Y-14692167D01*
X8660119Y-14692167D02*
X8679167Y-14682643D01*
X8679167Y-14682643D02*
X8707738Y-14682643D01*
X8707738Y-14682643D02*
X8726786Y-14692167D01*
X8726786Y-14692167D02*
X8736310Y-14711214D01*
X8736310Y-14711214D02*
X8736310Y-14815976D01*
X8860119Y-14815976D02*
X8841072Y-14806452D01*
X8841072Y-14806452D02*
X8831548Y-14796928D01*
X8831548Y-14796928D02*
X8822024Y-14777881D01*
X8822024Y-14777881D02*
X8822024Y-14720738D01*
X8822024Y-14720738D02*
X8831548Y-14701690D01*
X8831548Y-14701690D02*
X8841072Y-14692167D01*
X8841072Y-14692167D02*
X8860119Y-14682643D01*
X8860119Y-14682643D02*
X8888691Y-14682643D01*
X8888691Y-14682643D02*
X8907738Y-14692167D01*
X8907738Y-14692167D02*
X8917262Y-14701690D01*
X8917262Y-14701690D02*
X8926786Y-14720738D01*
X8926786Y-14720738D02*
X8926786Y-14777881D01*
X8926786Y-14777881D02*
X8917262Y-14796928D01*
X8917262Y-14796928D02*
X8907738Y-14806452D01*
X8907738Y-14806452D02*
X8888691Y-14815976D01*
X8888691Y-14815976D02*
X8860119Y-14815976D01*
X8983929Y-14682643D02*
X9060119Y-14682643D01*
X9012500Y-14615976D02*
X9012500Y-14787405D01*
X9012500Y-14787405D02*
X9022024Y-14806452D01*
X9022024Y-14806452D02*
X9041072Y-14815976D01*
X9041072Y-14815976D02*
X9060119Y-14815976D01*
X9246786Y-14682643D02*
X9246786Y-14882643D01*
X9246786Y-14692167D02*
X9265834Y-14682643D01*
X9265834Y-14682643D02*
X9303929Y-14682643D01*
X9303929Y-14682643D02*
X9322976Y-14692167D01*
X9322976Y-14692167D02*
X9332500Y-14701690D01*
X9332500Y-14701690D02*
X9342024Y-14720738D01*
X9342024Y-14720738D02*
X9342024Y-14777881D01*
X9342024Y-14777881D02*
X9332500Y-14796928D01*
X9332500Y-14796928D02*
X9322976Y-14806452D01*
X9322976Y-14806452D02*
X9303929Y-14815976D01*
X9303929Y-14815976D02*
X9265834Y-14815976D01*
X9265834Y-14815976D02*
X9246786Y-14806452D01*
X9456310Y-14815976D02*
X9437262Y-14806452D01*
X9437262Y-14806452D02*
X9427738Y-14787405D01*
X9427738Y-14787405D02*
X9427738Y-14615976D01*
X9618215Y-14815976D02*
X9618215Y-14711214D01*
X9618215Y-14711214D02*
X9608691Y-14692167D01*
X9608691Y-14692167D02*
X9589643Y-14682643D01*
X9589643Y-14682643D02*
X9551548Y-14682643D01*
X9551548Y-14682643D02*
X9532500Y-14692167D01*
X9618215Y-14806452D02*
X9599167Y-14815976D01*
X9599167Y-14815976D02*
X9551548Y-14815976D01*
X9551548Y-14815976D02*
X9532500Y-14806452D01*
X9532500Y-14806452D02*
X9522976Y-14787405D01*
X9522976Y-14787405D02*
X9522976Y-14768357D01*
X9522976Y-14768357D02*
X9532500Y-14749309D01*
X9532500Y-14749309D02*
X9551548Y-14739786D01*
X9551548Y-14739786D02*
X9599167Y-14739786D01*
X9599167Y-14739786D02*
X9618215Y-14730262D01*
X9684881Y-14682643D02*
X9761072Y-14682643D01*
X9713453Y-14615976D02*
X9713453Y-14787405D01*
X9713453Y-14787405D02*
X9722976Y-14806452D01*
X9722976Y-14806452D02*
X9742024Y-14815976D01*
X9742024Y-14815976D02*
X9761072Y-14815976D01*
X9903929Y-14806452D02*
X9884881Y-14815976D01*
X9884881Y-14815976D02*
X9846786Y-14815976D01*
X9846786Y-14815976D02*
X9827738Y-14806452D01*
X9827738Y-14806452D02*
X9818215Y-14787405D01*
X9818215Y-14787405D02*
X9818215Y-14711214D01*
X9818215Y-14711214D02*
X9827738Y-14692167D01*
X9827738Y-14692167D02*
X9846786Y-14682643D01*
X9846786Y-14682643D02*
X9884881Y-14682643D01*
X9884881Y-14682643D02*
X9903929Y-14692167D01*
X9903929Y-14692167D02*
X9913453Y-14711214D01*
X9913453Y-14711214D02*
X9913453Y-14730262D01*
X9913453Y-14730262D02*
X9818215Y-14749309D01*
X10084881Y-14815976D02*
X10084881Y-14615976D01*
X10084881Y-14806452D02*
X10065834Y-14815976D01*
X10065834Y-14815976D02*
X10027738Y-14815976D01*
X10027738Y-14815976D02*
X10008691Y-14806452D01*
X10008691Y-14806452D02*
X9999167Y-14796928D01*
X9999167Y-14796928D02*
X9989643Y-14777881D01*
X9989643Y-14777881D02*
X9989643Y-14720738D01*
X9989643Y-14720738D02*
X9999167Y-14701690D01*
X9999167Y-14701690D02*
X10008691Y-14692167D01*
X10008691Y-14692167D02*
X10027738Y-14682643D01*
X10027738Y-14682643D02*
X10065834Y-14682643D01*
X10065834Y-14682643D02*
X10084881Y-14692167D01*
X10161072Y-14892167D02*
X10170596Y-14882643D01*
X10170596Y-14882643D02*
X10189643Y-14854071D01*
X10189643Y-14854071D02*
X10199167Y-14835024D01*
X10199167Y-14835024D02*
X10208691Y-14806452D01*
X10208691Y-14806452D02*
X10218215Y-14758833D01*
X10218215Y-14758833D02*
X10218215Y-14720738D01*
X10218215Y-14720738D02*
X10208691Y-14673119D01*
X10208691Y-14673119D02*
X10199167Y-14644548D01*
X10199167Y-14644548D02*
X10189643Y-14625500D01*
X10189643Y-14625500D02*
X10170596Y-14596928D01*
X10170596Y-14596928D02*
X10161072Y-14587405D01*
M02*
