%TF.GenerationSoftware,KiCad,Pcbnew,(7.0.0-0)*%
%TF.CreationDate,2023-04-18T09:58:13-04:00*%
%TF.ProjectId,pi0ii040,70693069-6930-4343-902e-6b696361645f,rev?*%
%TF.SameCoordinates,Original*%
%TF.FileFunction,Profile,NP*%
%FSLAX46Y46*%
G04 Gerber Fmt 4.6, Leading zero omitted, Abs format (unit mm)*
G04 Created by KiCad (PCBNEW (7.0.0-0)) date 2023-04-18 09:58:13*
%MOMM*%
%LPD*%
G01*
G04 APERTURE LIST*
%TA.AperFunction,Profile*%
%ADD10C,0.100000*%
%TD*%
G04 APERTURE END LIST*
D10*
%TO.C,H1*%
X28326250Y-57736875D02*
X28326250Y-110124375D01*
X30707500Y-55355625D02*
X42169250Y-55355625D01*
X30707500Y-112505625D02*
X50948125Y-112505625D01*
X42423250Y-54085625D02*
X42423250Y-55101625D01*
X42677250Y-53831625D02*
X52075250Y-53831625D01*
X52138750Y-113696250D02*
X52138750Y-129174375D01*
X52329250Y-54085625D02*
X52329250Y-55101625D01*
X52583250Y-55355625D02*
X254545000Y-55355625D01*
X54520000Y-131555625D02*
X230732500Y-131555625D01*
X233113750Y-129174375D02*
X233113750Y-113696250D01*
X234304375Y-112505625D02*
X254545000Y-112505625D01*
X256926250Y-110124375D02*
X256926250Y-57736875D01*
X30707500Y-55355625D02*
G75*
G03*
X28326250Y-57736875I0J-2381250D01*
G01*
X28326250Y-110124375D02*
G75*
G03*
X30707500Y-112505625I2381250J0D01*
G01*
X42677250Y-53831625D02*
G75*
G03*
X42423250Y-54085625I0J-254000D01*
G01*
X42169250Y-55355625D02*
G75*
G03*
X42423250Y-55101625I0J254000D01*
G01*
X52138750Y-113696250D02*
G75*
G03*
X50948125Y-112505625I-1190600J25D01*
G01*
X52329250Y-54085625D02*
G75*
G03*
X52075250Y-53831625I-254000J0D01*
G01*
X52329250Y-55101625D02*
G75*
G03*
X52583250Y-55355625I254000J0D01*
G01*
X52138750Y-129174375D02*
G75*
G03*
X54520000Y-131555625I2381250J0D01*
G01*
X234304375Y-112505625D02*
G75*
G03*
X233113750Y-113696250I-25J-1190600D01*
G01*
X230732500Y-131555625D02*
G75*
G03*
X233113750Y-129174375I-50J2381300D01*
G01*
X256926250Y-57736875D02*
G75*
G03*
X254545000Y-55355625I-2381300J-50D01*
G01*
X254545000Y-112505625D02*
G75*
G03*
X256926250Y-110124375I-50J2381300D01*
G01*
X72261208Y-74870529D02*
G75*
G03*
X72261208Y-74870529I-1100000J0D01*
G01*
X75061208Y-112870529D02*
G75*
G03*
X75061208Y-112870529I-1100000J0D01*
G01*
X148561208Y-93270529D02*
G75*
G03*
X148561208Y-93270529I-1100000J0D01*
G01*
X209861208Y-113370529D02*
G75*
G03*
X209861208Y-113370529I-1100000J0D01*
G01*
X219961208Y-74170529D02*
G75*
G03*
X219961208Y-74170529I-1100000J0D01*
G01*
%TD*%
M02*
