%TF.GenerationSoftware,KiCad,Pcbnew,(7.0.0-0)*%
%TF.CreationDate,2023-04-18T09:58:13-04:00*%
%TF.ProjectId,pi0ii040,70693069-6930-4343-902e-6b696361645f,rev?*%
%TF.SameCoordinates,Original*%
%TF.FileFunction,Soldermask,Bot*%
%TF.FilePolarity,Negative*%
%FSLAX46Y46*%
G04 Gerber Fmt 4.6, Leading zero omitted, Abs format (unit mm)*
G04 Created by KiCad (PCBNEW (7.0.0-0)) date 2023-04-18 09:58:13*
%MOMM*%
%LPD*%
G01*
G04 APERTURE LIST*
G04 Aperture macros list*
%AMRoundRect*
0 Rectangle with rounded corners*
0 $1 Rounding radius*
0 $2 $3 $4 $5 $6 $7 $8 $9 X,Y pos of 4 corners*
0 Add a 4 corners polygon primitive as box body*
4,1,4,$2,$3,$4,$5,$6,$7,$8,$9,$2,$3,0*
0 Add four circle primitives for the rounded corners*
1,1,$1+$1,$2,$3*
1,1,$1+$1,$4,$5*
1,1,$1+$1,$6,$7*
1,1,$1+$1,$8,$9*
0 Add four rect primitives between the rounded corners*
20,1,$1+$1,$2,$3,$4,$5,0*
20,1,$1+$1,$4,$5,$6,$7,0*
20,1,$1+$1,$6,$7,$8,$9,0*
20,1,$1+$1,$8,$9,$2,$3,0*%
G04 Aperture macros list end*
%ADD10C,1.750000*%
%ADD11C,3.987800*%
%ADD12C,2.250000*%
%ADD13C,2.200000*%
%ADD14C,3.048000*%
%ADD15RoundRect,0.225000X0.375000X-0.225000X0.375000X0.225000X-0.375000X0.225000X-0.375000X-0.225000X0*%
%ADD16R,1.700000X1.700000*%
%ADD17O,1.700000X1.700000*%
%ADD18RoundRect,0.140000X0.170000X-0.140000X0.170000X0.140000X-0.170000X0.140000X-0.170000X-0.140000X0*%
%ADD19RoundRect,0.135000X-0.185000X0.135000X-0.185000X-0.135000X0.185000X-0.135000X0.185000X0.135000X0*%
%ADD20RoundRect,0.150000X0.150000X-0.587500X0.150000X0.587500X-0.150000X0.587500X-0.150000X-0.587500X0*%
%ADD21RoundRect,0.140000X0.140000X0.170000X-0.140000X0.170000X-0.140000X-0.170000X0.140000X-0.170000X0*%
%ADD22R,1.000000X1.000000*%
%ADD23O,1.000000X1.000000*%
%ADD24RoundRect,0.150000X-0.150000X0.650000X-0.150000X-0.650000X0.150000X-0.650000X0.150000X0.650000X0*%
%ADD25RoundRect,0.140000X-0.170000X0.140000X-0.170000X-0.140000X0.170000X-0.140000X0.170000X0.140000X0*%
%ADD26RoundRect,0.135000X0.135000X0.185000X-0.135000X0.185000X-0.135000X-0.185000X0.135000X-0.185000X0*%
%ADD27RoundRect,0.135000X-0.135000X-0.185000X0.135000X-0.185000X0.135000X0.185000X-0.135000X0.185000X0*%
%ADD28R,1.400000X1.200000*%
%ADD29RoundRect,0.135000X0.185000X-0.135000X0.185000X0.135000X-0.185000X0.135000X-0.185000X-0.135000X0*%
%ADD30RoundRect,0.050000X0.387500X0.050000X-0.387500X0.050000X-0.387500X-0.050000X0.387500X-0.050000X0*%
%ADD31RoundRect,0.050000X0.050000X0.387500X-0.050000X0.387500X-0.050000X-0.387500X0.050000X-0.387500X0*%
%ADD32RoundRect,0.144000X1.456000X1.456000X-1.456000X1.456000X-1.456000X-1.456000X1.456000X-1.456000X0*%
%ADD33R,0.700000X1.000000*%
%ADD34R,0.700000X0.600000*%
%ADD35RoundRect,0.140000X-0.219203X-0.021213X-0.021213X-0.219203X0.219203X0.021213X0.021213X0.219203X0*%
%ADD36RoundRect,0.150000X-0.625000X0.150000X-0.625000X-0.150000X0.625000X-0.150000X0.625000X0.150000X0*%
%ADD37RoundRect,0.250000X-0.650000X0.350000X-0.650000X-0.350000X0.650000X-0.350000X0.650000X0.350000X0*%
%ADD38C,0.750000*%
%ADD39RoundRect,0.050000X-0.300000X-0.725000X0.300000X-0.725000X0.300000X0.725000X-0.300000X0.725000X0*%
%ADD40RoundRect,0.050000X-0.150000X-0.725000X0.150000X-0.725000X0.150000X0.725000X-0.150000X0.725000X0*%
%ADD41O,1.100000X1.700000*%
%ADD42O,1.100000X2.200000*%
%ADD43RoundRect,0.243750X-0.456250X0.243750X-0.456250X-0.243750X0.456250X-0.243750X0.456250X0.243750X0*%
%ADD44RoundRect,0.140000X-0.140000X-0.170000X0.140000X-0.170000X0.140000X0.170000X-0.140000X0.170000X0*%
G04 APERTURE END LIST*
D10*
%TO.C,MX40*%
X216127500Y-122030625D03*
D11*
X221207500Y-122030625D03*
D10*
X226287500Y-122030625D03*
D12*
X217397500Y-119490625D03*
X223747500Y-116950625D03*
%TD*%
D13*
%TO.C,REF\u002A\u002A*%
X73961208Y-112870529D03*
%TD*%
D10*
%TO.C,MX27*%
X104208750Y-102980625D03*
D11*
X109288750Y-102980625D03*
D10*
X114368750Y-102980625D03*
D12*
X105478750Y-100440625D03*
X111828750Y-97900625D03*
%TD*%
D10*
%TO.C,MX35*%
X58965000Y-122030625D03*
D11*
X64045000Y-122030625D03*
D10*
X69125000Y-122030625D03*
D12*
X60235000Y-119490625D03*
X66585000Y-116950625D03*
%TD*%
D11*
%TO.C,MX38*%
X156913750Y-113775625D03*
D14*
X156913750Y-129015625D03*
D10*
X163740000Y-122030625D03*
D11*
X168820000Y-122030625D03*
D10*
X173900000Y-122030625D03*
D11*
X180726250Y-113775625D03*
D14*
X180726250Y-129015625D03*
D12*
X165010000Y-119490625D03*
X171360000Y-116950625D03*
%TD*%
D10*
%TO.C,MX39*%
X197077500Y-122030625D03*
D11*
X202157500Y-122030625D03*
D10*
X207237500Y-122030625D03*
D12*
X198347500Y-119490625D03*
X204697500Y-116950625D03*
%TD*%
D10*
%TO.C,MX18*%
X132783750Y-83930625D03*
D11*
X137863750Y-83930625D03*
D10*
X142943750Y-83930625D03*
D12*
X134053750Y-81390625D03*
X140403750Y-78850625D03*
%TD*%
D10*
%TO.C,MX15*%
X75633750Y-83930625D03*
D11*
X80713750Y-83930625D03*
D10*
X85793750Y-83930625D03*
D12*
X76903750Y-81390625D03*
X83253750Y-78850625D03*
%TD*%
D10*
%TO.C,MX23*%
X235177500Y-83930625D03*
D11*
X240257500Y-83930625D03*
D10*
X245337500Y-83930625D03*
D12*
X236447500Y-81390625D03*
X242797500Y-78850625D03*
%TD*%
D10*
%TO.C,MX35*%
X56583750Y-122030625D03*
D11*
X61663750Y-122030625D03*
D10*
X66743750Y-122030625D03*
D12*
X57853750Y-119490625D03*
X64203750Y-116950625D03*
%TD*%
D10*
%TO.C,MX2*%
X51821250Y-64880625D03*
D11*
X56901250Y-64880625D03*
D10*
X61981250Y-64880625D03*
D12*
X53091250Y-62340625D03*
X59441250Y-59800625D03*
%TD*%
D10*
%TO.C,MX9*%
X185171250Y-64880625D03*
D11*
X190251250Y-64880625D03*
D10*
X195331250Y-64880625D03*
D12*
X186441250Y-62340625D03*
X192791250Y-59800625D03*
%TD*%
D10*
%TO.C,MX33*%
X220890000Y-102980625D03*
D11*
X225970000Y-102980625D03*
D10*
X231050000Y-102980625D03*
D12*
X222160000Y-100440625D03*
X228510000Y-97900625D03*
%TD*%
D10*
%TO.C,MX19*%
X151833750Y-83930625D03*
D11*
X156913750Y-83930625D03*
D10*
X161993750Y-83930625D03*
D12*
X153103750Y-81390625D03*
X159453750Y-78850625D03*
%TD*%
D10*
%TO.C,MX29*%
X142308750Y-102980625D03*
D11*
X147388750Y-102980625D03*
D10*
X152468750Y-102980625D03*
D12*
X143578750Y-100440625D03*
X149928750Y-97900625D03*
%TD*%
D10*
%TO.C,MX7*%
X147071250Y-64880625D03*
D11*
X152151250Y-64880625D03*
D10*
X157231250Y-64880625D03*
D12*
X148341250Y-62340625D03*
X154691250Y-59800625D03*
%TD*%
D13*
%TO.C,REF\u002A\u002A*%
X147461208Y-93270529D03*
%TD*%
D10*
%TO.C,MX36*%
X78015000Y-122030625D03*
D11*
X83095000Y-122030625D03*
D10*
X88175000Y-122030625D03*
D12*
X79285000Y-119490625D03*
X85635000Y-116950625D03*
%TD*%
D13*
%TO.C,REF\u002A\u002A*%
X208761208Y-113370529D03*
%TD*%
D10*
%TO.C,MX12*%
X242321250Y-64880625D03*
D11*
X247401250Y-64880625D03*
D10*
X252481250Y-64880625D03*
D12*
X243591250Y-62340625D03*
X249941250Y-59800625D03*
%TD*%
D10*
%TO.C,MX16*%
X94683750Y-83930625D03*
D11*
X99763750Y-83930625D03*
D10*
X104843750Y-83930625D03*
D12*
X95953750Y-81390625D03*
X102303750Y-78850625D03*
%TD*%
D10*
%TO.C,MX34*%
X239940000Y-102980625D03*
D11*
X245020000Y-102980625D03*
D10*
X250100000Y-102980625D03*
D12*
X241210000Y-100440625D03*
X247560000Y-97900625D03*
%TD*%
D10*
%TO.C,MX21*%
X189933750Y-83930625D03*
D11*
X195013750Y-83930625D03*
D10*
X200093750Y-83930625D03*
D12*
X191203750Y-81390625D03*
X197553750Y-78850625D03*
%TD*%
D10*
%TO.C,MX4*%
X89921250Y-64880625D03*
D11*
X95001250Y-64880625D03*
D10*
X100081250Y-64880625D03*
D12*
X91191250Y-62340625D03*
X97541250Y-59800625D03*
%TD*%
D10*
%TO.C,MX34*%
X242321250Y-102980625D03*
D11*
X247401250Y-102980625D03*
D10*
X252481250Y-102980625D03*
D12*
X243591250Y-100440625D03*
X249941250Y-97900625D03*
%TD*%
D10*
%TO.C,MX17*%
X113733750Y-83930625D03*
D11*
X118813750Y-83930625D03*
D10*
X123893750Y-83930625D03*
D12*
X115003750Y-81390625D03*
X121353750Y-78850625D03*
%TD*%
D10*
%TO.C,MX13*%
X35152500Y-83930625D03*
D11*
X40232500Y-83930625D03*
D10*
X45312500Y-83930625D03*
D12*
X36422500Y-81390625D03*
X42772500Y-78850625D03*
%TD*%
D10*
%TO.C,MX20*%
X170883750Y-83930625D03*
D11*
X175963750Y-83930625D03*
D10*
X181043750Y-83930625D03*
D12*
X172153750Y-81390625D03*
X178503750Y-78850625D03*
%TD*%
D10*
%TO.C,MX28*%
X123258750Y-102980625D03*
D11*
X128338750Y-102980625D03*
D10*
X133418750Y-102980625D03*
D12*
X124528750Y-100440625D03*
X130878750Y-97900625D03*
%TD*%
D10*
%TO.C,MX25*%
X66108750Y-102980625D03*
D11*
X71188750Y-102980625D03*
D10*
X76268750Y-102980625D03*
D12*
X67378750Y-100440625D03*
X73728750Y-97900625D03*
%TD*%
D11*
%TO.C,MX37*%
X85476250Y-113775625D03*
D14*
X85476250Y-129015625D03*
D10*
X137546250Y-122030625D03*
D11*
X142626250Y-122030625D03*
D10*
X147706250Y-122030625D03*
D11*
X199776250Y-113775625D03*
D14*
X199776250Y-129015625D03*
D12*
X138816250Y-119490625D03*
X145166250Y-116950625D03*
%TD*%
D10*
%TO.C,MX6*%
X128021250Y-64880625D03*
D11*
X133101250Y-64880625D03*
D10*
X138181250Y-64880625D03*
D12*
X129291250Y-62340625D03*
X135641250Y-59800625D03*
%TD*%
D10*
%TO.C,MX30*%
X161358750Y-102980625D03*
D11*
X166438750Y-102980625D03*
D10*
X171518750Y-102980625D03*
D12*
X162628750Y-100440625D03*
X168978750Y-97900625D03*
%TD*%
D10*
%TO.C,MX40*%
X218508750Y-122030625D03*
D11*
X223588750Y-122030625D03*
D10*
X228668750Y-122030625D03*
D12*
X219778750Y-119490625D03*
X226128750Y-116950625D03*
%TD*%
D10*
%TO.C,MX3*%
X70871250Y-64880625D03*
D11*
X75951250Y-64880625D03*
D10*
X81031250Y-64880625D03*
D12*
X72141250Y-62340625D03*
X78491250Y-59800625D03*
%TD*%
D13*
%TO.C,REF\u002A\u002A*%
X218861208Y-74170529D03*
%TD*%
D10*
%TO.C,MX10*%
X204221250Y-64880625D03*
D11*
X209301250Y-64880625D03*
D10*
X214381250Y-64880625D03*
D12*
X205491250Y-62340625D03*
X211841250Y-59800625D03*
%TD*%
D10*
%TO.C,MX24*%
X39915000Y-102980625D03*
D11*
X44995000Y-102980625D03*
D10*
X50075000Y-102980625D03*
D12*
X41185000Y-100440625D03*
X47535000Y-97900625D03*
%TD*%
D10*
%TO.C,MX32*%
X199458750Y-102980625D03*
D11*
X204538750Y-102980625D03*
D10*
X209618750Y-102980625D03*
D12*
X200728750Y-100440625D03*
X207078750Y-97900625D03*
%TD*%
D10*
%TO.C,MX1*%
X32771250Y-64880625D03*
D11*
X37851250Y-64880625D03*
D10*
X42931250Y-64880625D03*
D12*
X34041250Y-62340625D03*
X40391250Y-59800625D03*
%TD*%
D10*
%TO.C,MX8*%
X166121250Y-64880625D03*
D11*
X171201250Y-64880625D03*
D10*
X176281250Y-64880625D03*
D12*
X167391250Y-62340625D03*
X173741250Y-59800625D03*
%TD*%
D10*
%TO.C,MX33*%
X218508750Y-102980625D03*
D11*
X223588750Y-102980625D03*
D10*
X228668750Y-102980625D03*
D12*
X219778750Y-100440625D03*
X226128750Y-97900625D03*
%TD*%
D10*
%TO.C,MX26*%
X85158750Y-102980625D03*
D11*
X90238750Y-102980625D03*
D10*
X95318750Y-102980625D03*
D12*
X86428750Y-100440625D03*
X92778750Y-97900625D03*
%TD*%
D10*
%TO.C,MX22*%
X208983750Y-83930625D03*
D11*
X214063750Y-83930625D03*
D10*
X219143750Y-83930625D03*
D12*
X210253750Y-81390625D03*
X216603750Y-78850625D03*
%TD*%
D11*
%TO.C,MX37*%
X109288750Y-113775625D03*
D14*
X109288750Y-129015625D03*
D10*
X116115000Y-122030625D03*
D11*
X121195000Y-122030625D03*
D10*
X126275000Y-122030625D03*
D11*
X133101250Y-113775625D03*
D14*
X133101250Y-129015625D03*
D12*
X117385000Y-119490625D03*
X123735000Y-116950625D03*
%TD*%
D10*
%TO.C,MX31*%
X180408750Y-102980625D03*
D11*
X185488750Y-102980625D03*
D10*
X190568750Y-102980625D03*
D12*
X181678750Y-100440625D03*
X188028750Y-97900625D03*
%TD*%
D10*
%TO.C,MX14*%
X56583750Y-83930625D03*
D11*
X61663750Y-83930625D03*
D10*
X66743750Y-83930625D03*
D12*
X57853750Y-81390625D03*
X64203750Y-78850625D03*
%TD*%
D10*
%TO.C,MX11*%
X223271250Y-64880625D03*
D11*
X228351250Y-64880625D03*
D10*
X233431250Y-64880625D03*
D12*
X224541250Y-62340625D03*
X230891250Y-59800625D03*
%TD*%
D10*
%TO.C,MX5*%
X108971250Y-64880625D03*
D11*
X114051250Y-64880625D03*
D10*
X119131250Y-64880625D03*
D12*
X110241250Y-62340625D03*
X116591250Y-59800625D03*
%TD*%
D13*
%TO.C,REF\u002A\u002A*%
X71161208Y-74870529D03*
%TD*%
D15*
%TO.C,D30*%
X174538750Y-106630625D03*
X174538750Y-103330625D03*
%TD*%
D16*
%TO.C,J2*%
X30499999Y-87524999D03*
D17*
X30499999Y-90064999D03*
X30499999Y-92604999D03*
X30499999Y-95144999D03*
X30499999Y-97684999D03*
%TD*%
D15*
%TO.C,D8*%
X179301250Y-68530625D03*
X179301250Y-65230625D03*
%TD*%
%TO.C,D37*%
X129295000Y-125680625D03*
X129295000Y-122380625D03*
%TD*%
D18*
%TO.C,C_3V-Decoup2*%
X53700000Y-96280000D03*
X53700000Y-95320000D03*
%TD*%
D15*
%TO.C,D14*%
X53563750Y-87580625D03*
X53563750Y-84280625D03*
%TD*%
%TO.C,D40*%
X231688750Y-125680625D03*
X231688750Y-122380625D03*
%TD*%
D19*
%TO.C,R_Shield1*%
X55250000Y-56220000D03*
X55250000Y-57240000D03*
%TD*%
D15*
%TO.C,D28*%
X136438750Y-106630625D03*
X136438750Y-103330625D03*
%TD*%
D20*
%TO.C,U4*%
X43220000Y-73725000D03*
X41320000Y-73725000D03*
X42270000Y-71850000D03*
%TD*%
D15*
%TO.C,D24*%
X36895000Y-106630625D03*
X36895000Y-103330625D03*
%TD*%
D18*
%TO.C,C_Crystal2*%
X55900000Y-113600000D03*
X55900000Y-112640000D03*
%TD*%
D21*
%TO.C,C_3V-Decoup5*%
X51500000Y-99500000D03*
X50540000Y-99500000D03*
%TD*%
D18*
%TO.C,C_1V-Decoup2*%
X59600000Y-93500000D03*
X59600000Y-92540000D03*
%TD*%
D15*
%TO.C,D29*%
X155488750Y-106630625D03*
X155488750Y-103330625D03*
%TD*%
%TO.C,D3*%
X84051250Y-68530625D03*
X84051250Y-65230625D03*
%TD*%
%TO.C,D4*%
X103101250Y-68530625D03*
X103101250Y-65230625D03*
%TD*%
%TO.C,D35*%
X72145000Y-125680625D03*
X72145000Y-122380625D03*
%TD*%
%TO.C,D20*%
X184063750Y-87580625D03*
X184063750Y-84280625D03*
%TD*%
%TO.C,D31*%
X193588750Y-106630625D03*
X193588750Y-103330625D03*
%TD*%
D22*
%TO.C,Reset*%
X69849999Y-79949999D03*
D23*
X68579999Y-79949999D03*
%TD*%
D24*
%TO.C,U2*%
X68390000Y-86500000D03*
X69660000Y-86500000D03*
X70930000Y-86500000D03*
X72200000Y-86500000D03*
X72200000Y-93700000D03*
X70930000Y-93700000D03*
X69660000Y-93700000D03*
X68390000Y-93700000D03*
%TD*%
D25*
%TO.C,C_3V-Decoup8*%
X56500000Y-109700000D03*
X56500000Y-110660000D03*
%TD*%
%TO.C,C_Crystal1*%
X61700000Y-112720000D03*
X61700000Y-113680000D03*
%TD*%
D26*
%TO.C,R_USB1*%
X46010000Y-62900000D03*
X44990000Y-62900000D03*
%TD*%
D15*
%TO.C,D19*%
X165013750Y-87580625D03*
X165013750Y-84280625D03*
%TD*%
D27*
%TO.C,R_USB2*%
X49190000Y-62500000D03*
X50210000Y-62500000D03*
%TD*%
D15*
%TO.C,D39*%
X210257500Y-125680625D03*
X210257500Y-122380625D03*
%TD*%
%TO.C,D17*%
X126913750Y-87580625D03*
X126913750Y-84280625D03*
%TD*%
%TO.C,D10*%
X217401250Y-68530625D03*
X217401250Y-65230625D03*
%TD*%
D28*
%TO.C,Y1*%
X57699999Y-112199999D03*
X59899999Y-112199999D03*
X59899999Y-113899999D03*
X57699999Y-113899999D03*
%TD*%
D15*
%TO.C,D2*%
X65001250Y-68530625D03*
X65001250Y-65230625D03*
%TD*%
D29*
%TO.C,R_RST1*%
X33350000Y-89060000D03*
X33350000Y-88040000D03*
%TD*%
D15*
%TO.C,D36*%
X91195000Y-125680625D03*
X91195000Y-122380625D03*
%TD*%
D21*
%TO.C,C_3V-Decoup1*%
X39930000Y-75270000D03*
X38970000Y-75270000D03*
%TD*%
D30*
%TO.C,U1*%
X61000000Y-99800000D03*
X61000000Y-100200000D03*
X61000000Y-100600000D03*
X61000000Y-101000000D03*
X61000000Y-101400000D03*
X61000000Y-101800000D03*
X61000000Y-102200000D03*
X61000000Y-102600000D03*
X61000000Y-103000000D03*
X61000000Y-103400000D03*
X61000000Y-103800000D03*
X61000000Y-104200000D03*
X61000000Y-104600000D03*
X61000000Y-105000000D03*
D31*
X60162500Y-105837500D03*
X59762500Y-105837500D03*
X59362500Y-105837500D03*
X58962500Y-105837500D03*
X58562500Y-105837500D03*
X58162500Y-105837500D03*
X57762500Y-105837500D03*
X57362500Y-105837500D03*
X56962500Y-105837500D03*
X56562500Y-105837500D03*
X56162500Y-105837500D03*
X55762500Y-105837500D03*
X55362500Y-105837500D03*
X54962500Y-105837500D03*
D30*
X54125000Y-105000000D03*
X54125000Y-104600000D03*
X54125000Y-104200000D03*
X54125000Y-103800000D03*
X54125000Y-103400000D03*
X54125000Y-103000000D03*
X54125000Y-102600000D03*
X54125000Y-102200000D03*
X54125000Y-101800000D03*
X54125000Y-101400000D03*
X54125000Y-101000000D03*
X54125000Y-100600000D03*
X54125000Y-100200000D03*
X54125000Y-99800000D03*
D31*
X54962500Y-98962500D03*
X55362500Y-98962500D03*
X55762500Y-98962500D03*
X56162500Y-98962500D03*
X56562500Y-98962500D03*
X56962500Y-98962500D03*
X57362500Y-98962500D03*
X57762500Y-98962500D03*
X58162500Y-98962500D03*
X58562500Y-98962500D03*
X58962500Y-98962500D03*
X59362500Y-98962500D03*
X59762500Y-98962500D03*
X60162500Y-98962500D03*
D32*
X57562500Y-102400000D03*
%TD*%
D33*
%TO.C,U3*%
X48449999Y-66549999D03*
D34*
X48449999Y-68249999D03*
X46449999Y-68249999D03*
X46449999Y-66349999D03*
%TD*%
D29*
%TO.C,R_Crystal1*%
X57700000Y-110700000D03*
X57700000Y-109680000D03*
%TD*%
D25*
%TO.C,C_1V-Decoup3*%
X55300000Y-109700000D03*
X55300000Y-110660000D03*
%TD*%
D19*
%TO.C,R_DATA1*%
X57100000Y-93580000D03*
X57100000Y-94600000D03*
%TD*%
D21*
%TO.C,C_3V-Decoup7*%
X51500000Y-98500000D03*
X50540000Y-98500000D03*
%TD*%
D15*
%TO.C,D1*%
X29751250Y-68530625D03*
X29751250Y-65230625D03*
%TD*%
%TO.C,D13*%
X48332500Y-87580625D03*
X48332500Y-84280625D03*
%TD*%
D18*
%TO.C,C_Shield1*%
X56400000Y-57200000D03*
X56400000Y-56240000D03*
%TD*%
D15*
%TO.C,D5*%
X122151250Y-68530625D03*
X122151250Y-65230625D03*
%TD*%
%TO.C,D18*%
X145963750Y-87580625D03*
X145963750Y-84280625D03*
%TD*%
%TO.C,D22*%
X222163750Y-87580625D03*
X222163750Y-84280625D03*
%TD*%
%TO.C,D12*%
X255501250Y-68530625D03*
X255501250Y-65230625D03*
%TD*%
D35*
%TO.C,C_3V-Decoup9*%
X63860589Y-104560589D03*
X64539411Y-105239411D03*
%TD*%
D15*
%TO.C,D7*%
X160251250Y-68530625D03*
X160251250Y-65230625D03*
%TD*%
D36*
%TO.C,J1*%
X52900000Y-72200000D03*
X52900000Y-73200000D03*
X52900000Y-74200000D03*
X52900000Y-75200000D03*
D37*
X56775000Y-70900000D03*
X56775000Y-76500000D03*
%TD*%
D15*
%TO.C,D34*%
X255501250Y-106630625D03*
X255501250Y-103330625D03*
%TD*%
D18*
%TO.C,C_1V-Decoup1*%
X54900000Y-95180000D03*
X54900000Y-94220000D03*
%TD*%
D19*
%TO.C,R_Flash1*%
X68500000Y-82450000D03*
X68500000Y-83470000D03*
%TD*%
D15*
%TO.C,D9*%
X198351250Y-68530625D03*
X198351250Y-65230625D03*
%TD*%
D21*
%TO.C,C_3V-Decoup4*%
X51500000Y-100500000D03*
X50540000Y-100500000D03*
%TD*%
D15*
%TO.C,D6*%
X141201250Y-68530625D03*
X141201250Y-65230625D03*
%TD*%
%TO.C,D11*%
X236451250Y-68530625D03*
X236451250Y-65230625D03*
%TD*%
D18*
%TO.C,C_Flash1*%
X66600000Y-93700000D03*
X66600000Y-92740000D03*
%TD*%
D15*
%TO.C,D25*%
X79288750Y-106630625D03*
X79288750Y-103330625D03*
%TD*%
D38*
%TO.C,USB1*%
X44486250Y-58633725D03*
X50266250Y-58633725D03*
D39*
X44151250Y-60078725D03*
X44926250Y-60078725D03*
D40*
X45626250Y-60078725D03*
X46126250Y-60078725D03*
X46626250Y-60078725D03*
X47126250Y-60078725D03*
X47626250Y-60078725D03*
X48126250Y-60078725D03*
X48626250Y-60078725D03*
X49126250Y-60078725D03*
D39*
X49826250Y-60078725D03*
X50601250Y-60078725D03*
D41*
X43056249Y-54983724D03*
D42*
X43056249Y-59163724D03*
D41*
X51696249Y-54983724D03*
D42*
X51696249Y-59163724D03*
%TD*%
D15*
%TO.C,D16*%
X107863750Y-87580625D03*
X107863750Y-84280625D03*
%TD*%
%TO.C,D15*%
X88813750Y-87580625D03*
X88813750Y-84280625D03*
%TD*%
D18*
%TO.C,C_3V-Decoup3*%
X58200000Y-92700000D03*
X58200000Y-91740000D03*
%TD*%
D15*
%TO.C,D23*%
X248357500Y-87580625D03*
X248357500Y-84280625D03*
%TD*%
%TO.C,D33*%
X234070000Y-106630625D03*
X234070000Y-103330625D03*
%TD*%
D21*
%TO.C,C_LDO1*%
X42200000Y-70200000D03*
X41240000Y-70200000D03*
%TD*%
%TO.C,C_LDO2*%
X39900000Y-74170000D03*
X38940000Y-74170000D03*
%TD*%
D43*
%TO.C,F1*%
X41750000Y-67012500D03*
X41750000Y-68887500D03*
%TD*%
D15*
%TO.C,D26*%
X98338750Y-106630625D03*
X98338750Y-103330625D03*
%TD*%
%TO.C,D27*%
X117388750Y-106630625D03*
X117388750Y-103330625D03*
%TD*%
D19*
%TO.C,R_DATA2*%
X56000000Y-93580000D03*
X56000000Y-94600000D03*
%TD*%
D15*
%TO.C,D21*%
X203113750Y-87580625D03*
X203113750Y-84280625D03*
%TD*%
%TO.C,D32*%
X212638750Y-106630625D03*
X212638750Y-103330625D03*
%TD*%
%TO.C,D38*%
X176920000Y-125680625D03*
X176920000Y-122380625D03*
%TD*%
D44*
%TO.C,C_3V-Decoup6*%
X62220000Y-98900000D03*
X63180000Y-98900000D03*
%TD*%
M02*
