%TF.GenerationSoftware,KiCad,Pcbnew,(7.0.0-0)*%
%TF.CreationDate,2023-04-18T09:58:13-04:00*%
%TF.ProjectId,pi0ii040,70693069-6930-4343-902e-6b696361645f,rev?*%
%TF.SameCoordinates,Original*%
%TF.FileFunction,Other,Comment*%
%FSLAX46Y46*%
G04 Gerber Fmt 4.6, Leading zero omitted, Abs format (unit mm)*
G04 Created by KiCad (PCBNEW (7.0.0-0)) date 2023-04-18 09:58:13*
%MOMM*%
%LPD*%
G01*
G04 APERTURE LIST*
%ADD10C,0.150000*%
G04 APERTURE END LIST*
D10*
%TO.C,USB1*%
X48766725Y-61127629D02*
X48766725Y-61775248D01*
X48766725Y-61775248D02*
X48728630Y-61851439D01*
X48728630Y-61851439D02*
X48690535Y-61889534D01*
X48690535Y-61889534D02*
X48614344Y-61927629D01*
X48614344Y-61927629D02*
X48461963Y-61927629D01*
X48461963Y-61927629D02*
X48385773Y-61889534D01*
X48385773Y-61889534D02*
X48347678Y-61851439D01*
X48347678Y-61851439D02*
X48309582Y-61775248D01*
X48309582Y-61775248D02*
X48309582Y-61127629D01*
X47966726Y-61889534D02*
X47852440Y-61927629D01*
X47852440Y-61927629D02*
X47661964Y-61927629D01*
X47661964Y-61927629D02*
X47585773Y-61889534D01*
X47585773Y-61889534D02*
X47547678Y-61851439D01*
X47547678Y-61851439D02*
X47509583Y-61775248D01*
X47509583Y-61775248D02*
X47509583Y-61699058D01*
X47509583Y-61699058D02*
X47547678Y-61622867D01*
X47547678Y-61622867D02*
X47585773Y-61584772D01*
X47585773Y-61584772D02*
X47661964Y-61546677D01*
X47661964Y-61546677D02*
X47814345Y-61508582D01*
X47814345Y-61508582D02*
X47890535Y-61470486D01*
X47890535Y-61470486D02*
X47928630Y-61432391D01*
X47928630Y-61432391D02*
X47966726Y-61356201D01*
X47966726Y-61356201D02*
X47966726Y-61280010D01*
X47966726Y-61280010D02*
X47928630Y-61203820D01*
X47928630Y-61203820D02*
X47890535Y-61165725D01*
X47890535Y-61165725D02*
X47814345Y-61127629D01*
X47814345Y-61127629D02*
X47623868Y-61127629D01*
X47623868Y-61127629D02*
X47509583Y-61165725D01*
X46900059Y-61508582D02*
X46785773Y-61546677D01*
X46785773Y-61546677D02*
X46747678Y-61584772D01*
X46747678Y-61584772D02*
X46709582Y-61660963D01*
X46709582Y-61660963D02*
X46709582Y-61775248D01*
X46709582Y-61775248D02*
X46747678Y-61851439D01*
X46747678Y-61851439D02*
X46785773Y-61889534D01*
X46785773Y-61889534D02*
X46861963Y-61927629D01*
X46861963Y-61927629D02*
X47166725Y-61927629D01*
X47166725Y-61927629D02*
X47166725Y-61127629D01*
X47166725Y-61127629D02*
X46900059Y-61127629D01*
X46900059Y-61127629D02*
X46823868Y-61165725D01*
X46823868Y-61165725D02*
X46785773Y-61203820D01*
X46785773Y-61203820D02*
X46747678Y-61280010D01*
X46747678Y-61280010D02*
X46747678Y-61356201D01*
X46747678Y-61356201D02*
X46785773Y-61432391D01*
X46785773Y-61432391D02*
X46823868Y-61470486D01*
X46823868Y-61470486D02*
X46900059Y-61508582D01*
X46900059Y-61508582D02*
X47166725Y-61508582D01*
X45947678Y-61927629D02*
X46404821Y-61927629D01*
X46176249Y-61927629D02*
X46176249Y-61127629D01*
X46176249Y-61127629D02*
X46252440Y-61241915D01*
X46252440Y-61241915D02*
X46328630Y-61318105D01*
X46328630Y-61318105D02*
X46404821Y-61356201D01*
%TO.C,REF\u002A\u002A*%
X76161208Y-112870529D02*
G75*
G03*
X76161208Y-112870529I-2200000J0D01*
G01*
X149661208Y-93270529D02*
G75*
G03*
X149661208Y-93270529I-2200000J0D01*
G01*
X210961208Y-113370529D02*
G75*
G03*
X210961208Y-113370529I-2200000J0D01*
G01*
X221061208Y-74170529D02*
G75*
G03*
X221061208Y-74170529I-2200000J0D01*
G01*
X73361208Y-74870529D02*
G75*
G03*
X73361208Y-74870529I-2200000J0D01*
G01*
%TD*%
M02*
