M48
; DRILL file {KiCad (7.0.0-0)} date Tuesday, April 18, 2023 at 09:58:13
; FORMAT={-:-/ absolute / inch / decimal}
; #@! TF.CreationDate,2023-04-18T09:58:13-04:00
; #@! TF.GenerationSoftware,Kicad,Pcbnew,(7.0.0-0)
; #@! TF.FileFunction,Plated,1,2,PTH
FMAT,2
INCH
; #@! TA.AperFunction,Plated,PTH,ViaDrill
T1C0.0138
; #@! TA.AperFunction,Plated,PTH,ComponentDrill
T2C0.0138
; #@! TA.AperFunction,Plated,PTH,ViaDrill
T3C0.0157
; #@! TA.AperFunction,Plated,PTH,ComponentDrill
T4C0.0236
; #@! TA.AperFunction,Plated,PTH,ComponentDrill
T5C0.0256
; #@! TA.AperFunction,Plated,PTH,ComponentDrill
T6C0.0394
; #@! TA.AperFunction,Plated,PTH,ComponentDrill
T7C0.0579
%
G90
G05
T1
X1.2244Y-3.2303
X1.313Y-3.815
X1.3917Y-3.4646
X1.4606Y-2.9921
X1.622Y-3.6043
X1.622Y-4.1575
X1.7106Y-2.4193
X1.7461Y-3.2205
X1.7815Y-2.4311
X1.7815Y-2.7539
X1.7933Y-3.4823
X1.803Y-4.297
X1.8652Y-2.2262
X1.874Y-3.1555
X1.8917Y-3.9429
X1.9258Y-2.8858
X1.9941Y-3.4193
X1.9961Y-3.7264
X1.998Y-3.5118
X2.0Y-3.063
X2.0079Y-2.6201
X2.0197Y-4.1555
X2.0217Y-2.7461
X2.0354Y-3.4205
X2.0413Y-3.5098
X2.065Y-4.1673
X2.0709Y-4.0453
X2.0965Y-4.1673
X2.0965Y-4.2835
X2.1024Y-3.8583
X2.2185Y-3.9469
X2.2426Y-4.1196
X2.2913Y-2.4331
X2.2933Y-3.7815
X2.2953Y-3.5433
X2.4764Y-2.8602
X2.5197Y-4.185
X2.5394Y-3.8976
X2.5689Y-3.6299
X2.6643Y-3.651
X2.6673Y-4.75
X2.6949Y-4.0787
X2.7972Y-4.4724
X2.8366Y-3.4941
X2.9547Y-3.502
X2.9646Y-3.3799
X2.998Y-3.8091
X3.2343Y-4.0453
X3.2756Y-3.6831
X3.3366Y-2.8799
X3.3563Y-3.5098
X3.7264Y-3.7638
X3.7461Y-3.0138
X3.8287Y-4.5059
X4.0925Y-3.7421
X4.5756Y-2.8404
X4.8937Y-3.7165
X4.9941Y-2.378
X5.5945Y-3.378
X5.6791Y-3.8189
X7.1752Y-4.6142
X7.3465Y-4.2992
T2
X2.216Y-3.9813
X2.216Y-4.0315
X2.216Y-4.0817
X2.2662Y-3.9813
X2.2662Y-4.0315
X2.2662Y-4.0817
X2.3164Y-3.9813
X2.3164Y-4.0315
X2.3164Y-4.0817
T3
X1.4902Y-3.4843
X1.5295Y-3.4272
X1.565Y-2.7008
X1.7126Y-3.428
X1.7953Y-2.8425
X1.8465Y-3.0295
X1.9035Y-2.9606
X1.9055Y-2.8425
X1.937Y-3.9996
X2.065Y-4.3425
X2.1102Y-2.6535
X2.1142Y-3.6772
X2.126Y-2.7441
X2.1319Y-4.3189
X2.1339Y-2.252
X2.1693Y-3.5236
X2.2008Y-4.5236
X2.2913Y-3.7002
X2.4075Y-2.7028
X2.4291Y-3.7047
X2.4291Y-4.3937
X2.4961Y-3.9293
X2.5846Y-3.4488
X2.5849Y-3.9507
X2.5984Y-4.1831
X2.6004Y-4.311
X2.6024Y-3.8949
X2.624Y-3.5669
X2.6457Y-4.3071
X2.6654Y-3.6083
X2.7165Y-4.1929
X2.7913Y-3.563
X2.8386Y-3.6063
X2.9075Y-4.1743
X2.9882Y-3.563
X2.9882Y-3.6063
X2.9961Y-3.4469
X3.1181Y-3.9016
X4.5355Y-3.6555
X5.2814Y-3.6319
X6.0277Y-3.4961
X7.1929Y-4.3642
X8.002Y-4.3287
X8.1614Y-4.3012
X8.2356Y-3.8983
X8.3051Y-4.2256
X8.4606Y-3.9547
X8.4705Y-4.2362
X8.5295Y-3.8445
X8.8996Y-3.4114
X9.1122Y-3.1378
X9.3287Y-3.622
T5
X2.7Y-3.1476
X2.75Y-3.1476
T6
X1.2008Y-3.4459
X1.2008Y-3.5459
X1.2008Y-3.6459
X1.2008Y-3.7459
X1.2008Y-3.8459
T7
X1.3402Y-2.4544
X1.434Y-3.2044
X1.5902Y-2.3544
X1.6215Y-3.9544
X1.684Y-3.1044
X1.8715Y-3.8544
X2.0902Y-2.4544
X2.2777Y-3.2044
X2.2777Y-4.7044
X2.3402Y-2.3544
X2.3715Y-4.7044
X2.5277Y-3.1044
X2.5277Y-4.6044
X2.6215Y-4.6044
X2.6527Y-3.9544
X2.8402Y-2.4544
X2.9027Y-3.8544
X3.0277Y-3.2044
X3.0902Y-2.3544
X3.1215Y-4.7044
X3.2777Y-3.1044
X3.3715Y-4.6044
X3.4027Y-3.9544
X3.5902Y-2.4544
X3.6527Y-3.8544
X3.7777Y-3.2044
X3.8402Y-2.3544
X4.0277Y-3.1044
X4.1527Y-3.9544
X4.3402Y-2.4544
X4.4027Y-3.8544
X4.5277Y-3.2044
X4.5902Y-2.3544
X4.6215Y-4.7044
X4.7777Y-3.1044
X4.8715Y-4.6044
X4.9027Y-3.9544
X5.0902Y-2.4544
X5.1527Y-3.8544
X5.2777Y-3.2044
X5.3402Y-2.3544
X5.4652Y-4.7044
X5.5277Y-3.1044
X5.6527Y-3.9544
X5.7152Y-4.6044
X5.8402Y-2.4544
X5.9027Y-3.8544
X6.0277Y-3.2044
X6.0902Y-2.3544
X6.2777Y-3.1044
X6.4027Y-3.9544
X6.4965Y-4.7044
X6.5902Y-2.4544
X6.6527Y-3.8544
X6.7465Y-4.6044
X6.7777Y-3.2044
X6.8402Y-2.3544
X7.0277Y-3.1044
X7.1527Y-3.9544
X7.3402Y-2.4544
X7.4027Y-3.8544
X7.5277Y-3.2044
X7.5902Y-2.3544
X7.7777Y-3.1044
X7.809Y-4.7044
X7.9027Y-3.9544
X8.059Y-4.6044
X8.0902Y-2.4544
X8.1527Y-3.8544
X8.2777Y-3.2044
X8.3402Y-2.3544
X8.5277Y-3.1044
X8.559Y-4.7044
X8.6527Y-3.9544
X8.6527Y-4.7044
X8.7465Y-3.9544
X8.809Y-4.6044
X8.8402Y-2.4544
X8.9027Y-3.8544
X8.9027Y-4.6044
X8.9965Y-3.8544
X9.0902Y-2.3544
X9.309Y-3.2044
X9.4965Y-3.9544
X9.559Y-3.1044
X9.5902Y-2.4544
X9.5902Y-3.9544
X9.7465Y-3.8544
X9.8402Y-2.3544
X9.8402Y-3.8544
T4
G00X1.6951Y-2.1529
M15
G01X1.6951Y-2.1765
M16
G05
G00X1.6951Y-2.3076
M15
G01X1.6951Y-2.3509
M16
G05
G00X2.0353Y-2.1529
M15
G01X2.0353Y-2.1765
M16
G05
G00X2.0353Y-2.3076
M15
G01X2.0353Y-2.3509
M16
G05
T0
M30
