M48
; DRILL file {KiCad (7.0.0-0)} date Tuesday, April 18, 2023 at 09:58:13
; FORMAT={-:-/ absolute / inch / decimal}
; #@! TF.CreationDate,2023-04-18T09:58:13-04:00
; #@! TF.GenerationSoftware,Kicad,Pcbnew,(7.0.0-0)
; #@! TF.FileFunction,NonPlated,1,2,NPTH
FMAT,2
INCH
; #@! TA.AperFunction,NonPlated,NPTH,ComponentDrill
T1C0.0256
; #@! TA.AperFunction,NonPlated,NPTH,ComponentDrill
T2C0.0689
; #@! TA.AperFunction,NonPlated,NPTH,ComponentDrill
T3C0.0866
; #@! TA.AperFunction,NonPlated,NPTH,ComponentDrill
T4C0.1200
; #@! TA.AperFunction,NonPlated,NPTH,ComponentDrill
T5C0.1570
%
G90
G05
T1
X1.7514Y-2.3084
X1.979Y-2.3084
T2
X1.2902Y-2.5544
X1.384Y-3.3044
X1.5715Y-4.0544
X1.6902Y-2.5544
X1.784Y-3.3044
X1.9715Y-4.0544
X2.0402Y-2.5544
X2.2277Y-3.3044
X2.2277Y-4.8044
X2.3215Y-4.8044
X2.4402Y-2.5544
X2.6027Y-4.0544
X2.6277Y-3.3044
X2.6277Y-4.8044
X2.7215Y-4.8044
X2.7902Y-2.5544
X2.9777Y-3.3044
X3.0027Y-4.0544
X3.0715Y-4.8044
X3.1902Y-2.5544
X3.3527Y-4.0544
X3.3777Y-3.3044
X3.4715Y-4.8044
X3.5402Y-2.5544
X3.7277Y-3.3044
X3.7527Y-4.0544
X3.9402Y-2.5544
X4.1027Y-4.0544
X4.1277Y-3.3044
X4.2902Y-2.5544
X4.4777Y-3.3044
X4.5027Y-4.0544
X4.5715Y-4.8044
X4.6902Y-2.5544
X4.8527Y-4.0544
X4.8777Y-3.3044
X4.9715Y-4.8044
X5.0402Y-2.5544
X5.2277Y-3.3044
X5.2527Y-4.0544
X5.4152Y-4.8044
X5.4402Y-2.5544
X5.6027Y-4.0544
X5.6277Y-3.3044
X5.7902Y-2.5544
X5.8152Y-4.8044
X5.9777Y-3.3044
X6.0027Y-4.0544
X6.1902Y-2.5544
X6.3527Y-4.0544
X6.3777Y-3.3044
X6.4465Y-4.8044
X6.5402Y-2.5544
X6.7277Y-3.3044
X6.7527Y-4.0544
X6.8465Y-4.8044
X6.9402Y-2.5544
X7.1027Y-4.0544
X7.1277Y-3.3044
X7.2902Y-2.5544
X7.4777Y-3.3044
X7.5027Y-4.0544
X7.6902Y-2.5544
X7.759Y-4.8044
X7.8527Y-4.0544
X7.8777Y-3.3044
X8.0402Y-2.5544
X8.159Y-4.8044
X8.2277Y-3.3044
X8.2527Y-4.0544
X8.4402Y-2.5544
X8.509Y-4.8044
X8.6027Y-4.0544
X8.6027Y-4.8044
X8.6277Y-3.3044
X8.6965Y-4.0544
X8.7902Y-2.5544
X8.909Y-4.8044
X9.0027Y-4.0544
X9.0027Y-4.8044
X9.0965Y-4.0544
X9.1902Y-2.5544
X9.259Y-3.3044
X9.4465Y-4.0544
X9.5402Y-2.5544
X9.5402Y-4.0544
X9.659Y-3.3044
X9.8465Y-4.0544
X9.9402Y-2.5544
X9.9402Y-4.0544
T3
X2.8016Y-2.9477
X2.9119Y-4.4437
X5.8056Y-3.6721
X8.2189Y-4.4634
X8.6166Y-2.9201
T4
X3.3652Y-5.0794
X4.3027Y-5.0794
X5.2402Y-5.0794
X6.1777Y-5.0794
X7.1152Y-5.0794
X7.8652Y-5.0794
T5
X1.4902Y-2.5544
X1.584Y-3.3044
X1.7715Y-4.0544
X2.2402Y-2.5544
X2.4277Y-3.3044
X2.4277Y-4.8044
X2.5215Y-4.8044
X2.8027Y-4.0544
X2.9902Y-2.5544
X3.1777Y-3.3044
X3.2715Y-4.8044
X3.3652Y-4.4794
X3.5527Y-4.0544
X3.7402Y-2.5544
X3.9277Y-3.3044
X4.3027Y-4.0544
X4.3027Y-4.4794
X4.4902Y-2.5544
X4.6777Y-3.3044
X4.7715Y-4.8044
X5.0527Y-4.0544
X5.2402Y-2.5544
X5.2402Y-4.4794
X5.4277Y-3.3044
X5.6152Y-4.8044
X5.8027Y-4.0544
X5.9902Y-2.5544
X6.1777Y-3.3044
X6.1777Y-4.4794
X6.5527Y-4.0544
X6.6465Y-4.8044
X6.7402Y-2.5544
X6.9277Y-3.3044
X7.1152Y-4.4794
X7.3027Y-4.0544
X7.4902Y-2.5544
X7.6777Y-3.3044
X7.8652Y-4.4794
X7.959Y-4.8044
X8.0527Y-4.0544
X8.2402Y-2.5544
X8.4277Y-3.3044
X8.709Y-4.8044
X8.8027Y-4.0544
X8.8027Y-4.8044
X8.8965Y-4.0544
X8.9902Y-2.5544
X9.459Y-3.3044
X9.6465Y-4.0544
X9.7402Y-2.5544
X9.7402Y-4.0544
T0
M30
